<svg width="18" height="24" version="1.1" viewBox="0 0 4.7625 6.35" xmlns="http://www.w3.org/2000/svg">
 <g transform="matrix(.012402 0 0 .012402 -.79375 .053575)" style="fill:#0b085b">
  <g style="fill:#0b085b">
   <g style="fill:#0b085b">
    <g style="fill:#0b085b">
     <path d="m362.67 281.88v-185.88c0-2.833-1.125-5.542-3.125-7.542l-85.334-85.333c-2-2-4.708-3.125-7.542-3.125h-160c-23.531 0-42.666 19.135-42.666 42.667v320c0 23.531 19.135 42.667 42.667 42.667h107.21c5.414 59.71 55.695 106.67 116.79 106.67 64.698 0 117.33-52.635 117.33-117.33 0-53.594-36.16-98.809-85.333-112.78zm-85.334-245.46 48.917 48.917h-27.583c-11.76 0-21.333-9.573-21.333-21.333v-27.584zm-170.67 347.58c-11.76 0-21.333-9.573-21.333-21.333v-320c0-11.76 9.573-21.333 21.333-21.333h149.33v42.666c0 23.531 19.135 42.667 42.667 42.667h42.667v171.21c-3.518-0.319-7.066-0.54-10.667-0.54-61.098 0-111.38 46.956-116.79 106.67h-107.21zm224 106.67c-52.938 0-96-43.063-96-96s43.063-96 96-96 96 43.063 96 96-43.063 96-96 96z" style="fill:#0b085b"/>
     <path d="m365.79 408.46-24.458 24.458v-102.25c0-5.896-4.771-10.667-10.667-10.667s-10.667 4.771-10.667 10.667v102.25l-24.458-24.458c-4.167-4.167-10.917-4.167-15.083 0-4.167 4.167-4.167 10.917 0 15.083l42.667 42.667c2.083 2.083 4.813 3.125 7.542 3.125s5.458-1.042 7.542-3.125l42.667-42.667c4.167-4.167 4.167-10.917 0-15.083-4.169-4.166-10.919-4.166-15.085 0z" style="fill:#0b085b"/>
    </g>
   </g>
  </g>
 </g>
</svg>
