<?xml version="1.0" encoding="UTF-8" standalone="no"?>
<!-- Created with Inkscape (http://www.inkscape.org/) -->

<svg
   width="113.43089mm"
   height="21.43071mm"
   viewBox="0 0 113.43089 21.43071"
   version="1.1"
   id="svg5"
   inkscape:version="1.1.1 (3bf5ae0d25, 2021-09-20)"
   xmlns:inkscape="http://www.inkscape.org/namespaces/inkscape"
   xmlns:sodipodi="http://sodipodi.sourceforge.net/DTD/sodipodi-0.dtd"
   xmlns="http://www.w3.org/2000/svg"
   xmlns:svg="http://www.w3.org/2000/svg">
  <sodipodi:namedview
     id="namedview7"
     pagecolor="#ffffff"
     bordercolor="#666666"
     borderopacity="1.0"
     inkscape:pageshadow="2"
     inkscape:pageopacity="0.0"
     inkscape:pagecheckerboard="0"
     inkscape:document-units="mm"
     showgrid="false"
     inkscape:zoom="0.10141844"
     inkscape:cx="226.78322"
     inkscape:cy="98.601401"
     inkscape:window-width="1902"
     inkscape:window-height="973"
     inkscape:window-x="181"
     inkscape:window-y="20"
     inkscape:window-maximized="0"
     inkscape:current-layer="layer1" />
  <defs
     id="defs2" />
  <g
     inkscape:label="Capa 1"
     inkscape:groupmode="layer"
     id="layer1"
     transform="translate(-36.591485,-121.0857)">
    <path
       id="path832"
       style="fill:#252d77;fill-opacity:1;fill-rule:evenodd;stroke:none;stroke-width:0.103119"
       d="m 47.132775,121.0857 c -1.3179,-3e-5 -2.65873,0.25057 -3.66123,0.68155 -2.66638,1.16323 -4.53014,2.65218 -5.87717,5.36948 -0.489,0.98642 -0.97792,2.39156 -0.97792,3.58268 -0.31369,4.79246 2.3434,8.97077 7.11339,10.93427 3.02621,1.24698 7.83316,0.65128 10.3704,-1.47971 1.04256,-0.87476 2.07584,-2.28919 2.59252,-3.47105 0.18453,-0.41876 0.48894,-0.96769 0.73805,-1.63772 h -5.48036 c -2.20506,0 -5.95094,0.25121 -6.48607,-2.98722 -0.62737,-3.82464 4.13347,-5.23911 6.42157,-2.09375 0.57201,0.8003 0.30438,3.61062 0.54425,1.10737 0.16608,-1.71226 -0.47048,-3.46181 -2.8324,-4.42963 -0.67353,-0.26986 -1.92835,-0.47447 -2.50959,-0.5675 1.55924,-1.04224 5.2221,-0.0281 5.52657,0.5675 -1.31011,-2.47534 -4.60389,-2.92186 -4.88067,-2.90324 1.19942,-0.46529 3.83809,0.22322 4.77916,0.54893 1.50389,0.52112 2.7494,1.35865 3.96726,2.71729 0.53512,0.58628 1.11639,1.47971 1.37474,2.0939 -0.24911,-0.82822 -0.41512,-1.48894 -1.08864,-2.57772 -1.69763,-2.7266 -4.05033,-4.06666 -7.07654,-5.08097 -0.76462,-0.25708 -1.65561,-0.37444 -2.55732,-0.37446 z m 64.701135,1.32836 v 0.26283 h 0.2583 c 0.13157,0 0.23433,0.0243 0.30589,0.0718 0.0728,0.0469 0.12879,0.1014 0.166,0.16118 0.0372,0.06 0.0597,0.17019 0.0639,0.33292 0.009,0.3816 0.0128,0.76891 0.0128,1.15888 v 2.08045 c 0,0.52703 -0.0142,0.94416 -0.0456,1.25132 -0.0142,0.14861 -0.0484,0.24725 -0.10423,0.29758 -0.0556,0.05 -0.17438,0.0757 -0.35573,0.0757 h -0.30135 v 0.2642 c 0.61145,-0.0199 1.00132,-0.0302 1.17142,-0.0302 0.24557,0 0.52001,0.0103 0.8243,0.0302 v -0.2642 l -0.26707,-0.0214 c -0.22015,-0.0186 -0.35435,-0.05 -0.39998,-0.0946 -0.0459,-0.0425 -0.0786,-0.16278 -0.0988,-0.36117 -0.0241,-0.25997 -0.0369,-0.71887 -0.0369,-1.37745 v -2.89191 l 3.00883,3.71635 c 0.3415,0.41853 0.66601,0.79982 0.9758,1.14287 0.0558,0.0613 0.1145,0.10561 0.17582,0.13157 0.0616,0.027 0.28144,0.07 0.66146,0.12839 -0.0443,-0.70576 -0.0671,-1.313 -0.0671,-1.8217 v -1.8874 c 0,-1.10703 0.0129,-1.71877 0.0373,-1.83303 0.0398,-0.17295 0.18859,-0.26027 0.44832,-0.26027 h 0.32159 v -0.26283 c -0.41016,0.0186 -0.74436,0.0286 -1.00435,0.0286 -0.24869,0 -0.5972,-0.01 -1.04589,-0.0286 v 0.26283 l 0.31449,0.0302 c 0.2815,0.0272 0.44267,0.0943 0.48277,0.19864 0.0398,0.10432 0.06,0.71852 0.06,1.84284 v 2.68769 c -0.22856,-0.24557 -0.60142,-0.6827 -1.11719,-1.31431 l -1.43183,-1.7575 c -0.2613,-0.32446 -0.51571,-0.64586 -0.76025,-0.96614 -0.24267,-0.31841 -0.50418,-0.64697 -0.77989,-0.98426 -0.24007,0.0186 -0.45994,0.0286 -0.66146,0.0286 -0.18713,0 -0.45712,-0.01 -0.81146,-0.0286 z m -49.522875,0.1716 v 0.26298 h 0.29712 c 0.24872,0 0.39582,0.0471 0.44168,0.14275 0.0469,0.0943 0.0696,0.53592 0.0696,1.32322 v 1.27579 l -0.009,0.7959 c 0,0.53282 0.0371,0.91009 0.11027,1.13154 0.0741,0.22148 0.19434,0.41008 0.35996,0.56313 0.1672,0.1541 0.41448,0.28278 0.74288,0.38684 0.33022,0.10455 0.71317,0.15725 1.15163,0.15725 0.42457,0 0.79298,-0.0584 1.10722,-0.17583 0.31449,-0.11686 0.5659,-0.27573 0.753,-0.47702 0.18871,-0.20155 0.31902,-0.42552 0.39032,-0.67581 0.0716,-0.25002 0.10709,-0.73306 0.10709,-1.45011 v -1.5705 c 0,-0.71442 0.0299,-1.13003 0.0931,-1.24876 0.0626,-0.11844 0.20577,-0.17839 0.42567,-0.17839 h 0.28413 v -0.26298 c -0.37713,0.0186 -0.69111,0.0285 -0.94559,0.0285 -0.15566,0 -0.52313,-0.01 -1.10178,-0.0285 v 0.26298 h 0.21857 c 0.2959,0 0.47588,0.0525 0.54168,0.15709 0.0655,0.10433 0.0985,0.52299 0.0985,1.25314 v 1.57866 c 0,0.70579 -0.0516,1.18591 -0.15437,1.43727 -0.1043,0.25316 -0.26698,0.43872 -0.49002,0.55874 -0.32419,0.17299 -0.72155,0.26026 -1.19301,0.26026 -0.45708,0 -0.82313,-0.0815 -1.09725,-0.24319 -0.27282,-0.16117 -0.44295,-0.35982 -0.50875,-0.59439 -0.0658,-0.23429 -0.0985,-0.65132 -0.0985,-1.25148 v -1.64028 c 0,-0.81009 0.027,-1.26434 0.0802,-1.36447 0.0527,-0.10142 0.2111,-0.15135 0.47265,-0.15135 h 0.30558 v -0.26298 c -0.52992,0.0186 -0.93132,0.0285 -1.20571,0.0285 -0.25866,0 -0.67432,-0.01 -1.24724,-0.0285 z m 64.455985,1.24195 c -0.56845,0 -1.04818,0.0962 -1.43788,0.29018 -0.39079,0.19368 -0.69292,0.46683 -0.90601,0.81855 -0.21359,0.35171 -0.32054,0.75135 -0.32054,1.1974 0,0.44606 0.10596,0.84655 0.31721,1.20087 0.21227,0.35407 0.51411,0.63076 0.90934,0.83231 0.39387,0.20048 0.85108,0.30089 1.37156,0.30089 0.25372,0 0.50571,-0.0312 0.75572,-0.0931 0.25109,-0.0629 0.50039,-0.15494 0.74726,-0.27839 0.038,-0.0983 0.0802,-0.19677 0.12447,-0.29455 l -0.0671,-0.0636 c -0.20914,0.15489 -0.41798,0.25657 -0.62475,0.30558 -0.27729,0.0647 -0.55754,0.0971 -0.84031,0.0971 -0.35826,0 -0.69712,-0.093 -1.0187,-0.27824 -0.32131,-0.18608 -0.56952,-0.43951 -0.74379,-0.75874 -0.17454,-0.31972 -0.26208,-0.68329 -0.26208,-1.0903 0,-0.58262 0.1725,-1.04597 0.51555,-1.39346 0.34436,-0.34647 0.80116,-0.51962 1.37277,-0.51962 0.22408,0 0.43851,0.0301 0.6453,0.092 0.20572,0.0618 0.40249,0.15375 0.59092,0.2793 l 0.0263,0.56433 h 0.21193 c 0.0152,-0.4128 0.0695,-0.73224 0.16464,-0.95843 -0.12449,-0.0225 -0.286,-0.0572 -0.48518,-0.10408 -0.39914,-0.0973 -0.74788,-0.14607 -1.04664,-0.14607 z m 6.48274,0 c -0.74588,0 -1.3434,0.21238 -1.79179,0.63775 -0.44817,0.42457 -0.67234,0.98515 -0.67234,1.68122 0,0.46023 0.0965,0.86952 0.28806,1.227 0.19263,0.35724 0.45469,0.62874 0.78698,0.81509 0.33233,0.18608 0.72768,0.27914 1.18683,0.27914 0.73278,0 1.34126,-0.23691 1.82321,-0.71025 0.48146,-0.47409 0.72309,-1.06304 0.72309,-1.76671 0,-0.65392 -0.20778,-1.17693 -0.6237,-1.57186 -0.41463,-0.39419 -0.98835,-0.59138 -1.72034,-0.59138 z m -12.00766,0.0284 c -0.0844,0.23692 -0.24353,0.6179 -0.47627,1.14181 l -0.87173,1.97593 c -0.15697,0.35301 -0.31082,0.68209 -0.45995,0.98637 -0.049,0.10377 -0.0953,0.16883 -0.13852,0.19607 -0.0435,0.0262 -0.13865,0.0412 -0.287,0.0456 l -0.0955,0.003 v 0.20015 c 0.23064,-0.0152 0.49795,-0.0228 0.80225,-0.0228 0.25445,0 0.48299,0.008 0.68532,0.0228 v -0.20015 l -0.30391,-0.0346 c -0.10851,-0.0131 -0.1757,-0.0308 -0.20166,-0.0512 -0.0262,-0.0215 -0.04,-0.0561 -0.04,-0.10483 0,-0.076 0.0715,-0.28343 0.21329,-0.62128 l 0.2157,-0.51116 h 1.83273 l 0.34969,0.88215 c 0.0626,0.16039 0.094,0.26014 0.094,0.29787 0,0.0359 -0.0149,0.066 -0.0474,0.0888 -0.0204,0.0152 -0.0874,0.0273 -0.19909,0.0349 l -0.31404,0.0193 v 0.20015 c 0.38631,-0.0152 0.69613,-0.0228 0.92913,-0.0228 0.24978,0 0.51178,0.008 0.78668,0.0228 v -0.20015 c -0.16353,-0.009 -0.26722,-0.0239 -0.31388,-0.0467 -0.0467,-0.0217 -0.0876,-0.0585 -0.12326,-0.11042 -0.037,-0.0519 -0.1081,-0.20455 -0.21661,-0.45799 l -1.60434,-3.73388 z m 22.35116,0 c -0.0841,0.23692 -0.24315,0.6179 -0.47611,1.14181 l -0.87143,1.97593 c -0.157,0.35301 -0.31089,0.68209 -0.46026,0.98637 -0.0487,0.10377 -0.0952,0.16883 -0.13866,0.19607 -0.0435,0.0262 -0.13836,0.0412 -0.2867,0.0456 l -0.0955,0.003 v 0.20015 c 0.23063,-0.0152 0.49798,-0.0228 0.80224,-0.0228 0.25448,0 0.483,0.008 0.68533,0.0228 v -0.20015 l -0.30422,-0.0346 c -0.10824,-0.0131 -0.17527,-0.0308 -0.2012,-0.0512 -0.0262,-0.0215 -0.0402,-0.0561 -0.0402,-0.10483 0,-0.076 0.0716,-0.28343 0.21313,-0.62128 l 0.21571,-0.51116 h 1.83272 l 0.34984,0.88215 c 0.0626,0.16039 0.0941,0.26014 0.0941,0.29787 0,0.0359 -0.015,0.066 -0.0474,0.0888 -0.0205,0.0152 -0.0879,0.0273 -0.19924,0.0349 l -0.31404,0.0193 v 0.20015 c 0.38632,-0.0152 0.6961,-0.0228 0.92883,-0.0228 0.25001,0 0.51193,0.008 0.78713,0.0228 v -0.20015 c -0.16355,-0.009 -0.26764,-0.0239 -0.31404,-0.0467 -0.0466,-0.0217 -0.0875,-0.0585 -0.12341,-0.11042 -0.0367,-0.0519 -0.10796,-0.20455 -0.21646,-0.45799 l -1.60448,-3.73388 z m -14.95137,0.0357 v 0.19909 h 0.25679 c 0.16877,0 0.27051,0.0433 0.30407,0.12975 0.0348,0.0868 0.051,0.5536 0.051,1.39906 v 1.07504 c 0,0.81637 -0.0193,1.27193 -0.0586,1.36733 -0.0388,0.0954 -0.15699,0.14305 -0.35407,0.14305 h -0.19923 v 0.20015 c 0.28698,-0.0152 0.60981,-0.0228 0.96704,-0.0228 0.30636,0 0.58999,0.008 0.84997,0.0228 v -0.20015 h -0.2089 c -0.195,0 -0.3098,-0.0422 -0.34546,-0.12583 -0.0359,-0.0831 -0.0545,-0.53564 -0.0545,-1.35857 v -1.09483 c 0,-0.57921 0.006,-0.98193 0.0163,-1.20812 0.006,-0.14625 0.0286,-0.23689 0.0663,-0.2728 0.0377,-0.0356 0.13205,-0.0541 0.28247,-0.0541 h 0.2438 v -0.19909 c -0.23166,0.0139 -0.49167,0.0214 -0.77656,0.0214 -0.34332,0 -0.68951,-0.008 -1.04045,-0.0214 z m 7.2442,0 v 0.19909 h 0.19576 c 0.0999,0 0.17772,0.0184 0.23172,0.0541 0.0556,0.0359 0.0976,0.077 0.12567,0.12235 0.028,0.0454 0.0453,0.12898 0.0485,0.25241 0.007,0.28881 0.01,0.58228 0.01,0.87792 v 1.57624 c 0,0.39992 -0.011,0.71587 -0.0349,0.94861 -0.0108,0.11242 -0.0366,0.18715 -0.0785,0.22492 -0.0425,0.0383 -0.13231,0.0577 -0.26963,0.0577 h -0.22854 v 0.20015 c 0.46333,-0.0152 0.75865,-0.0228 0.88758,-0.0228 0.18635,0 0.39412,0.008 0.62476,0.0228 v -0.20015 l -0.20226,-0.0163 c -0.16696,-0.0142 -0.26859,-0.038 -0.30316,-0.0716 -0.0346,-0.0325 -0.0599,-0.12344 -0.0751,-0.27386 -0.0183,-0.19708 -0.0279,-0.54453 -0.0279,-1.04378 v -2.19132 l 2.27999,2.81608 c 0.2587,0.31712 0.50464,0.60642 0.73971,0.86614 0.0422,0.0466 0.0864,0.0803 0.13308,0.0997 0.0464,0.0207 0.21304,0.0529 0.50134,0.0974 -0.0338,-0.5349 -0.0507,-0.9951 -0.0507,-1.38062 v -1.42987 c 0,-0.83917 0.01,-1.30262 0.0279,-1.38909 0.0301,-0.13104 0.14292,-0.19712 0.34002,-0.19712 h 0.24365 v -0.19909 c -0.31083,0.0139 -0.56424,0.0214 -0.76131,0.0214 -0.18818,0 -0.45265,-0.008 -0.79257,-0.0214 v 0.19909 l 0.23821,0.0227 c 0.21332,0.0207 0.33575,0.0714 0.36615,0.1506 0.0301,0.0789 0.0453,0.54437 0.0453,1.39663 v 2.03635 c -0.17322,-0.18609 -0.45576,-0.51734 -0.84681,-0.99589 l -1.08471,-1.33154 c -0.19813,-0.24583 -0.39067,-0.4893 -0.57596,-0.732 -0.18398,-0.24135 -0.38218,-0.49037 -0.59107,-0.7459 -0.18216,0.0139 -0.34857,0.0214 -0.50135,0.0214 -0.14179,0 -0.34643,-0.008 -0.61478,-0.0214 z m 10.46918,0 v 0.19909 h 0.34652 c 0.14179,0 0.2273,0.0368 0.25875,0.10936 0.0304,0.0737 0.0456,0.42637 0.0456,1.06085 v 1.74557 c 0,0.58575 -0.0152,0.92011 -0.0456,1.0045 -0.0315,0.0844 -0.13078,0.16458 -0.29984,0.23821 v 0.16782 c 0.42878,-0.0226 0.7448,-0.0347 0.94816,-0.0347 l 1.50932,0.0249 c 0.33022,0 0.59027,-0.0152 0.78079,-0.0474 0.0294,-0.34647 0.0702,-0.72019 0.12341,-1.11961 h -0.20573 l -0.19063,0.7459 c -0.16667,0.0446 -0.32908,0.075 -0.48503,0.092 -0.22409,0.0207 -0.53496,0.0314 -0.93305,0.0314 -0.19605,0 -0.39864,-0.005 -0.60543,-0.0162 l 0.01,-0.18609 -0.01,-0.8953 v -2.02063 c 0,-0.47068 0.014,-0.73934 0.0444,-0.80406 0.0296,-0.0642 0.10056,-0.0965 0.21223,-0.0965 h 0.39319 v -0.19909 c -0.37581,0.0139 -0.67461,0.0214 -0.89423,0.0214 -0.16458,0 -0.49937,-0.008 -1.00284,-0.0214 z m -55.184045,0.0657 c -0.52729,0 -0.93881,0.1311 -1.23758,0.39319 -0.2977,0.26182 -0.44727,0.59956 -0.44727,1.01206 0,0.2427 0.049,0.4461 0.14622,0.6107 0.0975,0.16354 0.23198,0.28366 0.40286,0.35966 0.17115,0.0768 0.49572,0.13289 0.97324,0.17114 0.35959,0.0301 0.60628,0.0733 0.7394,0.13066 0.1334,0.0566 0.23724,0.14413 0.31087,0.26102 0.0736,0.11821 0.11163,0.26111 0.11163,0.4299 0,0.29013 -0.10939,0.52935 -0.32719,0.71675 -0.21752,0.18845 -0.52624,0.28247 -0.92671,0.28247 -0.18502,0 -0.35923,-0.0217 -0.51962,-0.065 -0.16117,-0.0432 -0.29881,-0.10604 -0.4157,-0.18836 -0.0778,-0.055 -0.12794,-0.1073 -0.14969,-0.15604 -0.0204,-0.0485 -0.0314,-0.17534 -0.0314,-0.37974 v -0.15921 h -0.2151 c 0.002,0.39729 -0.0162,0.72327 -0.0542,0.97776 0.20889,0.0799 0.41688,0.14071 0.6234,0.18187 0.20602,0.0409 0.41038,0.0616 0.61403,0.0616 0.5923,0 1.06538,-0.15258 1.4205,-0.46026 0.35512,-0.30636 0.53277,-0.67219 0.53277,-1.09649 0,-0.21227 -0.0455,-0.39525 -0.13776,-0.54908 -0.092,-0.15464 -0.21413,-0.26635 -0.36797,-0.33685 -0.15255,-0.0692 -0.44712,-0.12521 -0.88351,-0.16767 -0.43504,-0.0401 -0.71989,-0.0879 -0.85435,-0.14078 -0.1339,-0.0542 -0.24108,-0.1418 -0.32024,-0.26419 -0.0802,-0.12136 -0.11903,-0.2663 -0.11903,-0.43534 0,-0.26837 0.0962,-0.48925 0.29018,-0.6604 0.19364,-0.17115 0.45884,-0.25664 0.79771,-0.25664 0.20677,0 0.40412,0.0339 0.59122,0.0997 0.1874,0.0674 0.30329,0.12995 0.34757,0.18972 0.0443,0.0582 0.066,0.17089 0.066,0.33549 v 0.25316 h 0.21994 c 0.004,-0.36351 0.0356,-0.65498 0.0952,-0.87459 -0.21441,-0.0933 -0.42747,-0.16252 -0.64001,-0.20785 -0.21204,-0.0456 -0.42435,-0.0684 -0.63533,-0.0684 z m 11.307215,0.0284 c -0.0844,0.23718 -0.2438,0.61822 -0.47627,1.14211 l -0.87157,1.97577 c -0.157,0.35302 -0.31063,0.68201 -0.46026,0.98653 -0.0488,0.10377 -0.0954,0.16876 -0.13867,0.19576 -0.0433,0.0259 -0.13865,0.0414 -0.287,0.0456 l -0.0952,0.003 v 0.20045 c 0.23063,-0.0152 0.49825,-0.0228 0.80224,-0.0228 0.25449,0 0.48273,0.008 0.68533,0.0228 v -0.20045 l -0.30422,-0.0346 c -0.10824,-0.0131 -0.17528,-0.0305 -0.20121,-0.0512 -0.0262,-0.0215 -0.0402,-0.0561 -0.0402,-0.10483 0,-0.0757 0.0715,-0.28346 0.21329,-0.62128 l 0.21555,-0.51086 h 1.83288 l 0.34969,0.88215 c 0.0626,0.16016 0.0944,0.25973 0.0944,0.29773 0,0.0356 -0.0155,0.066 -0.0477,0.0885 -0.0207,0.0152 -0.0876,0.0273 -0.19923,0.0349 l -0.31404,0.0195 v 0.20045 c 0.3863,-0.0152 0.69582,-0.0228 0.92882,-0.0228 0.25001,0 0.5122,0.008 0.78714,0.0228 v -0.20045 c -0.16328,-0.009 -0.26734,-0.0239 -0.31374,-0.0467 -0.0469,-0.0215 -0.0877,-0.0585 -0.12341,-0.11012 -0.037,-0.0524 -0.10852,-0.20498 -0.21676,-0.45814 l -1.60448,-3.73403 z m -15.069345,0.026 c -0.1334,0 -0.35203,0.005 -0.65632,0.0151 -0.26313,0.0107 -0.46331,0.0163 -0.60301,0.0163 -0.20783,0 -0.50761,-0.009 -0.90073,-0.0249 v 0.20226 h 0.17115 c 0.21543,0 0.34298,0.0391 0.38201,0.11828 0.0391,0.0778 0.0585,0.44472 0.0585,1.09966 v 1.52549 c 0,0.75584 -0.0161,1.17262 -0.0508,1.25178 -0.0335,0.0789 -0.14074,0.11902 -0.32265,0.11902 h -0.23821 v 0.20045 c 0.47544,-0.0152 0.80451,-0.0228 0.98638,-0.0228 0.23037,0 0.52052,0.008 0.87248,0.0228 v -0.20045 h -0.24788 c -0.19707,0 -0.31285,-0.0412 -0.34878,-0.1225 -0.0354,-0.0812 -0.0541,-0.49473 -0.0541,-1.24165 v -1.53214 c 0,-0.3821 0.0132,-0.74142 0.0381,-1.07821 0.22408,-0.0823 0.44713,-0.12341 0.66886,-0.12341 0.31947,0 0.56417,0.0767 0.73322,0.2293 0.16877,0.15384 0.25422,0.36746 0.25422,0.64001 0,0.30428 -0.10067,0.54667 -0.29984,0.72883 -0.20023,0.18188 -0.47638,0.2728 -0.82913,0.2728 -0.0598,0 -0.15053,-0.006 -0.27296,-0.0153 l -0.0323,0.10725 c 0.23928,0.26603 0.46307,0.53917 0.67219,0.81856 l 1.12368,1.51687 c 0.13315,-0.0152 0.26003,-0.0228 0.38005,-0.0228 0.13104,0 0.28467,0.008 0.46026,0.0228 v -0.20045 h -0.0823 c -0.0377,0 -0.0757,-0.01 -0.11163,-0.0281 -0.0356,-0.0197 -0.1069,-0.0965 -0.2154,-0.23172 l -0.60965,-0.79061 c -0.30639,-0.39496 -0.56283,-0.74127 -0.76961,-1.0403 0.40727,-0.0844 0.71883,-0.24034 0.9332,-0.46887 0.2157,-0.22828 0.32265,-0.49139 0.32265,-0.79016 0,-0.20256 -0.0498,-0.37686 -0.14833,-0.52309 -0.0972,-0.14625 -0.24144,-0.25764 -0.43065,-0.33444 -0.1895,-0.0778 -0.46676,-0.1157 -0.83261,-0.1157 z m 9.98385,0.007 -0.69499,0.0121 -0.853,0.006 c -0.12002,0 -0.35521,-0.005 -0.70376,-0.0151 v 0.19909 l 0.25347,0.0381 c 0.15042,0.0215 0.23687,0.0443 0.26178,0.0702 0.0238,0.0252 0.0433,0.11687 0.0584,0.27598 0.026,0.27306 0.0378,0.59666 0.0378,0.97353 v 0.92022 c 0,0.81845 -0.016,1.39117 -0.0506,1.71928 l -0.29455,0.17432 v 0.15165 c 0.26445,-0.0252 0.48174,-0.0378 0.65285,-0.0378 0.10196,0 0.34432,0.007 0.72642,0.0227 l 0.39107,0.009 c 0.77499,0 1.40402,-0.23304 1.88469,-0.70058 0.48195,-0.46756 0.72219,-1.05883 0.72219,-1.77352 0,-0.35301 -0.0628,-0.66355 -0.18731,-0.93426 -0.1245,-0.26944 -0.30648,-0.49374 -0.54576,-0.67249 -0.23928,-0.17849 -0.50554,-0.29744 -0.79907,-0.35588 -0.29459,-0.0595 -0.58026,-0.0865 -0.85964,-0.0823 z m 10.080975,0 -0.6953,0.0121 -0.85315,0.006 c -0.12002,0 -0.35506,-0.005 -0.7036,-0.0151 v 0.19909 l 0.25347,0.0381 c 0.15042,0.0215 0.23713,0.0443 0.26177,0.0702 0.0238,0.0252 0.0433,0.11687 0.0588,0.27598 0.026,0.27306 0.0378,0.59666 0.0378,0.97353 v 0.92022 c 0,0.81845 -0.0163,1.39117 -0.0509,1.71928 l -0.29425,0.17432 v 0.15165 c 0.26392,-0.0252 0.48167,-0.0378 0.65255,-0.0378 0.10169,0 0.3443,0.007 0.72641,0.0227 l 0.39077,0.009 c 0.77526,0 1.40425,-0.23304 1.88515,-0.70058 0.48172,-0.46756 0.72203,-1.05883 0.72203,-1.77352 0,-0.35301 -0.0625,-0.66355 -0.18731,-0.93426 -0.12449,-0.26944 -0.30643,-0.49374 -0.54545,-0.67249 -0.23954,-0.17849 -0.50583,-0.29744 -0.79907,-0.35588 -0.29458,-0.0595 -0.58052,-0.0865 -0.85964,-0.0823 z m -38.514745,0.003 v 0.19908 h 0.19577 c 0.0999,0 0.17761,0.0187 0.23186,0.0541 0.0553,0.0359 0.0976,0.0773 0.12568,0.12266 0.028,0.0453 0.0452,0.12892 0.0486,0.2521 0.007,0.28906 0.01,0.58232 0.01,0.87823 v 1.57608 c 0,0.39967 -0.0106,0.71573 -0.0348,0.94846 -0.0107,0.11269 -0.0367,0.18722 -0.0787,0.22522 -0.0425,0.038 -0.13231,0.0574 -0.26963,0.0574 h -0.22855 v 0.20045 c 0.46334,-0.0152 0.75892,-0.0228 0.88759,-0.0228 0.18635,0 0.39427,0.008 0.62491,0.0228 v -0.20045 l -0.20241,-0.0163 c -0.16697,-0.0142 -0.26858,-0.0381 -0.30317,-0.0716 -0.0346,-0.0322 -0.0596,-0.1234 -0.0748,-0.27386 -0.0186,-0.19707 -0.0283,-0.54448 -0.0283,-1.04347 v -2.19133 l 2.28015,2.81608 c 0.25895,0.31709 0.50474,0.60617 0.73956,0.86614 0.0422,0.0464 0.0864,0.0802 0.13307,0.0995 0.0466,0.0204 0.21331,0.053 0.50135,0.0973 -0.0336,-0.53465 -0.0508,-0.99506 -0.0508,-1.38032 v -1.43017 c 0,-0.83918 0.01,-1.30233 0.0281,-1.38908 0.0304,-0.13105 0.14277,-0.19713 0.33987,-0.19713 h 0.24365 v -0.19908 c -0.31084,0.0141 -0.56424,0.0218 -0.76131,0.0218 -0.18819,0 -0.45265,-0.008 -0.79257,-0.0218 v 0.19908 l 0.23836,0.0228 c 0.21333,0.0207 0.3356,0.0713 0.366,0.15045 0.0301,0.0792 0.0453,0.5446 0.0453,1.39664 v 2.03665 c -0.17321,-0.18635 -0.45572,-0.51763 -0.8465,-0.9962 l -1.08471,-1.33168 c -0.19839,-0.24584 -0.39097,-0.4893 -0.57627,-0.73201 -0.18397,-0.24109 -0.38192,-0.49022 -0.59107,-0.74574 -0.1819,0.0141 -0.34852,0.0218 -0.50104,0.0218 -0.14207,0 -0.34672,-0.008 -0.61509,-0.0218 z m 5.44909,0 v 0.19908 h 0.25634 c 0.16904,0 0.2711,0.0436 0.30437,0.13006 0.0349,0.0865 0.0507,0.55329 0.0507,1.39875 v 1.07505 c 0,0.81638 -0.0194,1.27206 -0.0584,1.36748 -0.0388,0.0951 -0.15667,0.14289 -0.35377,0.14289 h -0.19924 v 0.20045 c 0.28672,-0.0152 0.60936,-0.0228 0.96659,-0.0228 0.30663,0 0.5903,0.008 0.85028,0.0228 v -0.20045 h -0.20921 c -0.19497,0 -0.30957,-0.0422 -0.34546,-0.12552 -0.0356,-0.0836 -0.0539,-0.53606 -0.0539,-1.35872 v -1.09468 c 0,-0.5792 0.005,-0.98194 0.0162,-1.20813 0.005,-0.14624 0.0282,-0.23718 0.0662,-0.2731 0.038,-0.0354 0.13175,-0.0541 0.28247,-0.0541 h 0.2438 v -0.19908 c -0.23195,0.0141 -0.4918,0.0218 -0.77642,0.0218 -0.34331,0 -0.68977,-0.008 -1.04045,-0.0218 z m 2.07335,0 v 0.19908 h 0.12976 c 0.15488,0 0.24553,0.0197 0.2728,0.0574 0.0283,0.0377 0.12345,0.26217 0.28564,0.67234 l 1.13592,2.83874 c 0.0999,0.2482 0.19598,0.51321 0.29138,0.79575 h 0.32688 c 0.0844,-0.29327 0.22741,-0.68531 0.42869,-1.17671 l 1.06855,-2.61034 c 0.1182,-0.28908 0.20016,-0.45792 0.24576,-0.50588 0.0456,-0.0474 0.1193,-0.0713 0.22099,-0.0713 h 0.12658 v -0.19908 c -0.28801,0.0141 -0.52724,0.0218 -0.71674,0.0218 -0.18162,0 -0.41328,-0.008 -0.695,-0.0218 v 0.19908 l 0.27296,0.0284 0.12975,0.01 c 0.1169,0.004 0.17432,0.055 0.17432,0.15256 0,0.12029 -0.14066,0.53488 -0.42084,1.24302 l -0.83502,2.08408 -0.85617,-2.18468 -0.41283,-1.08819 c -0.0107,-0.0349 -0.0149,-0.065 -0.0149,-0.092 0,-0.0422 0.0149,-0.074 0.0474,-0.0944 0.0315,-0.0194 0.10096,-0.0301 0.20921,-0.0301 h 0.31389 v -0.22748 c -0.34226,0.0141 -0.63651,0.0218 -0.88261,0.0218 -0.23142,0 -0.51402,-0.008 -0.84635,-0.0218 z m 16.52234,0 v 0.19908 h 0.25663 c 0.16905,0 0.27096,0.0436 0.30422,0.13006 0.0346,0.0865 0.0509,0.55329 0.0509,1.39875 v 1.07505 c 0,0.81638 -0.0194,1.27206 -0.0585,1.36748 -0.0388,0.0951 -0.15707,0.14289 -0.35392,0.14289 h -0.19938 v 0.20045 c 0.28699,-0.0152 0.60966,-0.0228 0.96689,-0.0228 0.30636,0 0.5901,0.008 0.84982,0.0228 v -0.20045 h -0.20891 c -0.19496,0 -0.30965,-0.0422 -0.3453,-0.12552 -0.0356,-0.0836 -0.0544,-0.53606 -0.0544,-1.35872 v -1.09468 c 0,-0.5792 0.006,-0.98194 0.0166,-1.20813 0.005,-0.14624 0.028,-0.23718 0.0657,-0.2731 0.038,-0.0354 0.1321,-0.0541 0.28277,-0.0541 h 0.2435 v -0.19908 c -0.23168,0.0141 -0.49139,0.0218 -0.77626,0.0218 -0.34306,0 -0.68951,-0.008 -1.04045,-0.0218 z m -11.74257,0.002 v 0.19682 l 0.24456,0.0263 c 0.15177,0.0139 0.2427,0.0312 0.2731,0.0495 0.0291,0.0194 0.0519,0.0466 0.0681,0.0814 0.0152,0.0346 0.0304,0.14288 0.0446,0.32476 0.0142,0.18161 0.0205,0.41567 0.0205,0.70134 v 1.74104 c 0,0.4547 -0.008,0.74915 -0.0237,0.8823 -0.0165,0.13315 -0.0479,0.21753 -0.0956,0.25317 -0.0474,0.0359 -0.16333,0.0544 -0.34757,0.0544 h -0.0985 v 0.20044 c 0.41069,-0.0152 0.73961,-0.0228 0.98728,-0.0228 0.25788,0 0.66181,0.008 1.2119,0.0228 l 0.49787,0.009 c 0.23376,0 0.47315,-0.0109 0.7169,-0.0347 l -0.007,-0.1429 c 0,-0.15384 0.0284,-0.46333 0.0855,-0.92565 h -0.21238 c -0.055,0.27939 -0.10918,0.51102 -0.16238,0.69711 -0.11557,0.0424 -0.22602,0.0705 -0.32899,0.0823 -0.16145,0.0218 -0.35934,0.0325 -0.59651,0.0325 -0.35302,0 -0.68425,-0.0118 -0.99272,-0.0346 -0.007,-0.12999 -0.01,-0.33343 -0.01,-0.61282 l -0.003,-0.44712 v -0.77732 c 0.19079,-0.0163 0.37482,-0.0249 0.55225,-0.0249 0.47988,0 0.75997,0.0227 0.8391,0.0683 0.0789,0.0453 0.11903,0.16998 0.11903,0.37205 v 0.18428 h 0.2154 c -0.0152,-0.27257 -0.0228,-0.51001 -0.0228,-0.71025 0,-0.19052 0.008,-0.44497 0.0228,-0.76418 h -0.2154 v 0.20574 c 0,0.18187 -0.0338,0.29016 -0.1006,0.32476 -0.0661,0.0356 -0.35088,0.0529 -0.85406,0.0529 -0.16144,0 -0.34684,-0.006 -0.55572,-0.0193 v -0.64425 l 0.007,-0.48835 c 0.007,-0.19812 0.009,-0.39718 0.007,-0.59636 0.31712,-0.0252 0.62043,-0.0381 0.91055,-0.0381 0.36377,0 0.67006,0.0467 0.9193,0.13972 0.0236,0.15489 0.0346,0.34749 0.0346,0.5802 h 0.21615 c 0.008,-0.39942 0.0533,-0.7244 0.13353,-0.97309 -0.20127,-0.0194 -0.39971,-0.0272 -0.59681,-0.026 l -0.57687,0.003 -1.21809,0.0163 c -0.0975,0 -0.24038,-0.003 -0.42854,-0.01 l -0.33579,-0.01 z m 51.830375,0.0769 c 0.36927,0 0.68955,0.0802 0.96054,0.24138 0.27022,0.16012 0.48376,0.39966 0.63971,0.71781 0.15463,0.31844 0.23262,0.70154 0.23262,1.14996 0,0.42747 -0.0704,0.79017 -0.21117,1.08789 -0.14075,0.29745 -0.33331,0.52189 -0.57914,0.67233 -0.24451,0.15043 -0.53152,0.22537 -0.85858,0.22537 -0.35381,0 -0.66815,-0.0878 -0.94333,-0.26449 -0.27465,-0.17743 -0.49342,-0.44274 -0.65798,-0.7968 -0.16355,-0.35407 -0.24562,-0.76959 -0.24562,-1.24816 0,-0.3593 0.0703,-0.67565 0.20997,-0.94952 0.13969,-0.27389 0.33119,-0.48208 0.57702,-0.62384 0.24557,-0.1418 0.53709,-0.21193 0.87596,-0.21193 z m -35.913915,0.19365 c 0.63425,0 1.11487,0.16136 1.44407,0.48503 0.32917,0.32367 0.49349,0.79363 0.49349,1.41083 0,0.70893 -0.19783,1.24807 -0.59304,1.61839 -0.32813,0.30426 -0.78816,0.45572 -1.38047,0.45572 -0.2178,0 -0.46884,-0.0205 -0.75451,-0.0627 -0.0252,-0.33443 -0.0378,-0.69298 -0.0378,-1.07535 v -2.07411 c 0,-0.25892 0.0126,-0.48817 0.0378,-0.69182 0.30426,-0.0446 0.56822,-0.066 0.79046,-0.066 z m 10.080365,0 c 0.63452,0 1.11518,0.16136 1.44437,0.48503 0.32917,0.32367 0.4938,0.79363 0.4938,1.41083 0,0.70893 -0.19814,1.24807 -0.59334,1.61839 -0.32814,0.30426 -0.78818,0.45572 -1.38047,0.45572 -0.21754,0 -0.46884,-0.0205 -0.75451,-0.0627 -0.0249,-0.33443 -0.0381,-0.69298 -0.0381,-1.07535 v -2.07411 c 0,-0.25892 0.0132,-0.48817 0.0381,-0.69182 0.30399,-0.0446 0.56845,-0.066 0.79015,-0.066 z m 13.94265,0.41796 0.79907,1.90977 h -1.5992 z m 22.35147,0 0.79907,1.90977 h -1.5992 z m -41.11512,0.13006 0.79907,1.90976 h -1.5992 z m 7.9324,7.08922 c -0.13156,0 -0.32284,0.006 -0.57733,0.0171 -0.38578,0.0157 -0.73563,0.0243 -1.05012,0.0243 -0.53571,0 -0.97885,-0.007 -1.32715,-0.0199 v 0.26268 h 0.2086 c 0.27701,0 0.44999,0.0404 0.52129,0.1216 0.0716,0.0815 0.1101,0.30137 0.11585,0.66176 l 0.0112,0.86569 v 2.23603 c -0.0155,0.67723 -0.0314,1.0831 -0.0456,1.21598 -0.0144,0.13289 -0.0456,0.21988 -0.0956,0.26419 -0.0501,0.043 -0.16282,0.0645 -0.33866,0.0645 h -0.37703 v 0.26419 c 0.63842,-0.0199 1.08421,-0.0302 1.33425,-0.0302 0.28591,0 0.67456,0.0103 1.16885,0.0302 v -0.26419 h -0.28851 c -0.27989,0 -0.44452,-0.0501 -0.49455,-0.1515 -0.0501,-0.10011 -0.0755,-0.5703 -0.0755,-1.41054 v -2.39011 c 0,-0.45444 0.01,-0.88293 0.0296,-1.28471 0.32028,-0.10245 0.61591,-0.15573 0.88744,-0.15573 0.47724,0 0.83596,0.11014 1.07731,0.32899 0.24139,0.21987 0.36298,0.52415 0.36298,0.91569 0,0.40437 -0.1129,0.72312 -0.33987,0.95586 -0.2259,0.23297 -0.53178,0.34999 -0.91599,0.34999 -0.16588,0 -0.37001,-0.0329 -0.61584,-0.0971 l 0.0844,0.31857 c 0.24977,0.0527 0.45993,0.0801 0.62687,0.0801 0.36611,0 0.71053,-0.0857 1.03184,-0.25558 0.32287,-0.17009 0.57152,-0.39605 0.74711,-0.67596 0.17585,-0.28172 0.26449,-0.5728 0.26449,-0.87732 0,-0.41855 -0.15282,-0.75017 -0.45708,-0.99574 -0.30611,-0.2461 -0.79759,-0.36872 -1.47322,-0.36872 z m -36.658455,0.0215 v 0.26268 h 0.22129 c 0.21175,0 0.35449,0.0259 0.42446,0.076 0.0713,0.0498 0.11304,0.12297 0.12432,0.21706 0.0244,0.18423 0.0372,0.56307 0.0372,1.13441 v 2.36927 c 0,0.45261 -0.0186,0.87405 -0.0542,1.26401 -0.0141,0.14022 -0.0514,0.23585 -0.11299,0.28881 -0.0613,0.0529 -0.18422,0.0802 -0.36872,0.0802 h -0.27129 v 0.26419 c 0.52415,-0.0199 0.87427,-0.0302 1.05012,-0.0302 0.24297,0 0.55857,0.0103 0.9459,0.0302 v -0.26419 h -0.15438 c -0.31292,0 -0.49847,-0.0516 -0.55875,-0.15301 -0.06,-0.10143 -0.0899,-0.53026 -0.0899,-1.2832 v -3.23616 l 1.49723,3.10202 c 0.48854,1.02711 0.78448,1.66464 0.8888,1.91309 h 0.16722 c 0.29876,-0.72597 0.68038,-1.573 1.1474,-2.54479 l 1.24271,-2.58754 v 3.40338 c 0,0.73172 -0.0227,1.14458 -0.0696,1.24181 -0.0458,0.0956 -0.1788,0.1444 -0.39893,0.1444 h -0.27703 v 0.26419 c 0.42717,-0.0199 0.83602,-0.0302 1.22731,-0.0302 0.35433,0 0.72443,0.0103 1.11311,0.0302 v -0.26419 h -0.23882 c -0.26287,0 -0.42276,-0.0501 -0.47989,-0.1515 -0.0572,-0.10011 -0.0857,-0.49006 -0.0857,-1.17172 v -3.05928 c 0,-0.52834 0.0269,-0.8342 0.0814,-0.91991 0.0556,-0.0844 0.20589,-0.12734 0.45013,-0.12734 h 0.27281 v -0.26268 c -0.4301,0.0184 -0.72733,0.0284 -0.89167,0.0284 -0.14282,0 -0.38857,-0.01 -0.73714,-0.0284 -0.45731,1.03154 -0.86437,1.91453 -1.22156,2.64886 l -1.0175,2.09753 -1.10148,-2.26474 c -0.44002,-0.90443 -0.83004,-1.73158 -1.16733,-2.48165 -0.29302,0.0184 -0.51882,0.0284 -0.67869,0.0284 -0.1258,0 -0.4302,-0.01 -0.91583,-0.0284 z m -7.26474,1.11462 c -0.27205,0.10429 -0.60698,0.1882 -1.00405,0.25241 l -0.0252,0.0282 -0.01,0.0795 0.0249,0.026 0.26751,0.003 c 0.086,0 0.14472,0.01 0.17749,0.0282 0.0328,0.0197 0.0489,0.0522 0.0489,0.0991 0,0.0553 -0.008,0.12288 -0.0251,0.20438 l -0.16541,0.96507 c -0.23375,-0.0532 -0.41228,-0.0794 -0.53624,-0.0794 -0.11426,0 -0.22645,0.0217 -0.33624,0.0675 -0.10877,0.0445 -0.23924,0.11741 -0.39047,0.21963 -0.15016,0.10116 -0.27106,0.20473 -0.36147,0.30906 -0.0902,0.10455 -0.18164,0.25891 -0.27311,0.46358 -0.0912,0.20549 -0.16638,0.44813 -0.22612,0.72777 -0.0587,0.28067 -0.0891,0.51139 -0.0891,0.69197 0,0.13157 0.0141,0.25784 0.0421,0.37658 0.0273,0.11846 0.0633,0.20122 0.10785,0.24576 0.0448,0.0446 0.0989,0.0665 0.16314,0.0665 0.17848,0 0.4265,-0.1372 0.74439,-0.41132 0.31765,-0.27412 0.59079,-0.60493 0.82037,-0.99121 l 0.0162,0.003 c -0.0826,0.34594 -0.14044,0.59854 -0.17084,0.75738 -0.0304,0.15775 -0.0467,0.2763 -0.0467,0.35467 0,0.0957 0.0152,0.16743 0.0435,0.2154 0.0283,0.048 0.0653,0.0719 0.10981,0.0719 0.0805,0 0.21642,-0.0612 0.408,-0.18278 0.19131,-0.12317 0.38641,-0.26993 0.58321,-0.44183 l 0.01,-0.0414 -0.0314,-0.0739 -0.0349,-0.009 c -0.25791,0.20336 -0.42631,0.30558 -0.50678,0.30558 -0.06,0 -0.0894,-0.0511 -0.0894,-0.15332 0,-0.0425 0.002,-0.0838 0.005,-0.12386 0.0152,-0.12737 0.0522,-0.34385 0.11193,-0.65074 l 0.37658,-1.79738 c 0.12735,-0.61039 0.24035,-1.12487 0.34047,-1.54603 z m 17.69027,0.27205 c -0.0844,0.23694 -0.24368,0.61837 -0.47612,1.14226 l -0.87173,1.97577 c -0.157,0.35305 -0.31047,0.68211 -0.4601,0.98638 -0.0488,0.1038 -0.0954,0.16917 -0.13867,0.19591 -0.0433,0.0262 -0.13865,0.041 -0.287,0.0455 l -0.0949,0.003 v 0.2003 c 0.23036,-0.0152 0.49791,-0.0228 0.80194,-0.0228 0.25448,0 0.48273,0.008 0.68532,0.0228 v -0.2003 l -0.30422,-0.0346 c -0.10821,-0.0131 -0.17516,-0.0303 -0.20135,-0.0507 -0.0262,-0.0215 -0.04,-0.0564 -0.04,-0.10514 0,-0.0757 0.0715,-0.28361 0.21329,-0.62143 l 0.2154,-0.51101 h 1.83303 l 0.34969,0.88245 c 0.0626,0.16012 0.0943,0.25969 0.0943,0.29743 0,0.0362 -0.0153,0.0663 -0.0477,0.0891 -0.0207,0.0152 -0.0875,0.027 -0.19909,0.0346 l -0.31404,0.0193 v 0.2003 c 0.38658,-0.0152 0.69613,-0.0228 0.92913,-0.0228 0.24974,0 0.51181,0.008 0.78699,0.0228 v -0.2003 c -0.16352,-0.009 -0.26765,-0.0238 -0.31404,-0.0464 -0.0469,-0.0218 -0.0877,-0.0584 -0.12341,-0.11057 -0.0367,-0.0519 -0.10849,-0.20467 -0.21646,-0.45784 l -1.60464,-3.73419 z m 34.749745,0 c -0.0841,0.23694 -0.24338,0.61837 -0.47612,1.14226 l -0.87143,1.97577 c -0.15723,0.35305 -0.3109,0.68211 -0.46056,0.98638 -0.0485,0.1038 -0.095,0.16917 -0.13851,0.19591 -0.0432,0.0262 -0.13851,0.041 -0.28685,0.0455 l -0.095,0.003 v 0.2003 c 0.23062,-0.0152 0.49794,-0.0228 0.80194,-0.0228 0.25448,0 0.48301,0.008 0.68532,0.0228 v -0.2003 l -0.30437,-0.0346 c -0.10797,-0.0131 -0.17498,-0.0303 -0.2012,-0.0507 -0.026,-0.0215 -0.0399,-0.0564 -0.0399,-0.10514 0,-0.0757 0.0713,-0.28361 0.21314,-0.62143 l 0.2154,-0.51101 h 1.83303 l 0.34984,0.88245 c 0.0626,0.16012 0.0941,0.25969 0.0941,0.29743 0,0.0362 -0.0152,0.0663 -0.0474,0.0891 -0.0207,0.0152 -0.0879,0.027 -0.19924,0.0346 l -0.31389,0.0193 v 0.2003 c 0.38632,-0.0152 0.69583,-0.0228 0.92883,-0.0228 0.25004,0 0.51181,0.008 0.78699,0.0228 v -0.2003 c -0.16355,-0.009 -0.26765,-0.0238 -0.31404,-0.0464 -0.0467,-0.0218 -0.0875,-0.0584 -0.12341,-0.11057 -0.0367,-0.0519 -0.10822,-0.20467 -0.21646,-0.45784 l -1.60479,-3.73419 z m 9.03388,0 c -0.0844,0.23694 -0.24338,0.61837 -0.47612,1.14226 l -0.87173,1.97577 c -0.15699,0.35305 -0.31074,0.68211 -0.46011,0.98638 -0.0487,0.1038 -0.0953,0.16917 -0.13851,0.19591 -0.0435,0.0262 -0.13851,0.041 -0.28685,0.0455 l -0.0955,0.003 v 0.2003 c 0.23066,-0.0152 0.49798,-0.0228 0.80224,-0.0228 0.25448,0 0.48302,0.008 0.68533,0.0228 v -0.2003 l -0.30407,-0.0346 c -0.1085,-0.0131 -0.17555,-0.0303 -0.2015,-0.0507 -0.026,-0.0215 -0.04,-0.0564 -0.04,-0.10514 0,-0.0757 0.0715,-0.28361 0.21328,-0.62143 l 0.21571,-0.51101 h 1.83272 l 0.34954,0.88245 c 0.0629,0.16012 0.0941,0.25969 0.0941,0.29743 0,0.0362 -0.0149,0.0663 -0.0474,0.0891 -0.0204,0.0152 -0.0875,0.027 -0.19909,0.0346 l -0.31404,0.0193 v 0.2003 c 0.38628,-0.0152 0.69613,-0.0228 0.92913,-0.0228 0.24977,0 0.51177,0.008 0.78668,0.0228 v -0.2003 c -0.16354,-0.009 -0.26724,-0.0238 -0.31389,-0.0464 -0.0464,-0.0218 -0.0876,-0.0584 -0.12326,-0.11057 -0.037,-0.0519 -0.10825,-0.20467 -0.21676,-0.45784 l -1.60418,-3.73419 z m -38.835735,0.026 c -0.13311,0 -0.35203,0.006 -0.65632,0.0153 -0.26284,0.0108 -0.46301,0.016 -0.6027,0.016 -0.20783,0 -0.50765,-0.009 -0.90104,-0.0249 v 0.20256 h 0.17115 c 0.21545,0 0.34326,0.0391 0.38231,0.11798 0.0388,0.0781 0.0585,0.44491 0.0585,1.10011 v 1.52564 c 0,0.75558 -0.0164,1.17217 -0.0507,1.25132 -0.0338,0.0789 -0.14108,0.11903 -0.32296,0.11903 h -0.23821 v 0.2003 c 0.47541,-0.0152 0.80433,-0.0228 0.98623,-0.0228 0.23089,0 0.52097,0.008 0.87293,0.0228 v -0.2003 h -0.24818 c -0.1971,0 -0.313,-0.0411 -0.34863,-0.12235 -0.0357,-0.0812 -0.0539,-0.49461 -0.0539,-1.24181 v -1.53183 c 0,-0.38239 0.0131,-0.7416 0.0378,-1.07836 0.22408,-0.0823 0.4473,-0.12356 0.66902,-0.12356 0.31948,0 0.56398,0.0771 0.73275,0.2296 0.16905,0.15384 0.25483,0.36713 0.25483,0.63971 0,0.30426 -0.10097,0.54681 -0.30014,0.72868 -0.20023,0.18215 -0.47635,0.2731 -0.82913,0.2731 -0.0595,0 -0.15068,-0.006 -0.2728,-0.0153 l -0.0326,0.10695 c 0.23954,0.26652 0.46346,0.53943 0.67234,0.81855 l 1.12398,1.51688 c 0.13315,-0.0152 0.26,-0.0228 0.37975,-0.0228 0.13104,0 0.2849,0.008 0.46026,0.0228 v -0.2003 h -0.082 c -0.0383,0 -0.076,-0.01 -0.11162,-0.0279 -0.0356,-0.0196 -0.10716,-0.0965 -0.2154,-0.23172 l -0.60966,-0.79046 c -0.30636,-0.39522 -0.56302,-0.74165 -0.77006,-1.04015 0.40727,-0.0847 0.71928,-0.2406 0.93366,-0.46887 0.21516,-0.22852 0.32249,-0.49174 0.32249,-0.79076 0,-0.20207 -0.0498,-0.37667 -0.14833,-0.52264 -0.0975,-0.14625 -0.24137,-0.25779 -0.43111,-0.33459 -0.1892,-0.0781 -0.46615,-0.11585 -0.8323,-0.11585 z m 6.01086,0.006 -0.69515,0.0121 -0.853,0.007 c -0.12005,0 -0.35506,-0.006 -0.7039,-0.0153 v 0.19924 l 0.25361,0.0381 c 0.15045,0.0215 0.23687,0.0443 0.26178,0.0702 0.0236,0.0249 0.0433,0.11678 0.0585,0.27612 0.0259,0.27255 0.0381,0.59625 0.0381,0.97339 v 0.91991 c 0,0.81874 -0.0163,1.39156 -0.0512,1.71944 l -0.29425,0.17431 v 0.15151 c 0.26416,-0.0249 0.48171,-0.0378 0.65285,-0.0378 0.1017,0 0.34431,0.008 0.72642,0.0228 l 0.39077,0.009 c 0.77523,0 1.40433,-0.23263 1.88499,-0.70043 0.48195,-0.46781 0.72219,-1.05876 0.72219,-1.77321 0,-0.35329 -0.0626,-0.66398 -0.18731,-0.93472 -0.12446,-0.26967 -0.30647,-0.49369 -0.54575,-0.67218 -0.23928,-0.17875 -0.50555,-0.29798 -0.79907,-0.35619 -0.29432,-0.0597 -0.58039,-0.0866 -0.85949,-0.0825 z m 6.762335,0.003 v 0.19924 h 0.34621 c 0.14204,0 0.22745,0.037 0.25891,0.10937 0.0304,0.0739 0.0456,0.42663 0.0456,1.06114 v 1.74512 c 0,0.58576 -0.0152,0.92038 -0.0456,1.0045 -0.0315,0.0846 -0.13092,0.16484 -0.29969,0.23851 v 0.16782 c 0.42874,-0.0228 0.74481,-0.0349 0.94846,-0.0349 l 1.50902,0.0251 c 0.33022,0 0.59012,-0.0153 0.78064,-0.0476 0.0294,-0.34647 0.0703,-0.71993 0.12326,-1.1196 h -0.20543 l -0.19078,0.74605 c -0.16644,0.0443 -0.32894,0.0747 -0.48488,0.092 -0.22409,0.0207 -0.535,0.0314 -0.93336,0.0314 -0.19605,0 -0.39833,-0.005 -0.60512,-0.0162 l 0.01,-0.1864 -0.01,-0.89529 v -2.02034 c 0,-0.47095 0.0143,-0.73961 0.0444,-0.80436 0.0294,-0.0636 0.10086,-0.0964 0.21223,-0.0964 h 0.39304 v -0.19924 c -0.37582,0.0139 -0.67448,0.0216 -0.89438,0.0216 -0.16457,0 -0.49937,-0.008 -1.00254,-0.0216 z m 10.76993,0 v 0.19924 h 0.34651 c 0.14179,0 0.22715,0.037 0.2586,0.10937 0.0304,0.0739 0.0453,0.42663 0.0453,1.06114 v 1.74512 c 0,0.58576 -0.0149,0.92038 -0.0453,1.0045 -0.0315,0.0846 -0.13105,0.16484 -0.29984,0.23851 v 0.16782 c 0.42879,-0.0228 0.74496,-0.0349 0.94832,-0.0349 l 1.50932,0.0251 c 0.33022,0 0.59012,-0.0153 0.78064,-0.0476 0.0293,-0.34647 0.0703,-0.71993 0.12356,-1.1196 h -0.20573 l -0.19078,0.74605 c -0.16642,0.0443 -0.32894,0.0747 -0.48488,0.092 -0.22408,0.0207 -0.53494,0.0314 -0.93306,0.0314 -0.19627,0 -0.39864,-0.005 -0.60542,-0.0162 l 0.01,-0.1864 -0.01,-0.89529 v -2.02034 c 0,-0.47095 0.0138,-0.73961 0.0443,-0.80436 0.0291,-0.0636 0.10071,-0.0964 0.21238,-0.0964 h 0.39304 v -0.19924 c -0.37585,0.0139 -0.67451,0.0216 -0.89438,0.0216 -0.1646,0 -0.49909,-0.008 -1.00254,-0.0216 z m 8.96756,0 c 0.0252,0.28488 0.0381,0.5035 0.0381,0.65603 l -0.006,0.37793 h 0.19893 l 0.0453,-0.42536 c 0.0165,-0.1646 0.0509,-0.25998 0.10438,-0.28383 0.0529,-0.0249 0.34102,-0.0367 0.86281,-0.0367 h 0.32356 c 0.0152,0.29877 0.0216,0.62583 0.0216,0.98305 v 1.81128 c 0,0.39207 -0.01,0.71024 -0.0313,0.95843 -0.0107,0.10798 -0.0367,0.17949 -0.0792,0.21722 -0.0422,0.0369 -0.13307,0.0553 -0.2725,0.0553 h -0.26661 v 0.2003 c 0.36796,-0.0152 0.6831,-0.0228 0.94544,-0.0228 0.2597,0 0.57683,0.008 0.95133,0.0228 v -0.2003 h -0.23806 c -0.20677,0 -0.32806,-0.0346 -0.36162,-0.10271 -0.0335,-0.0695 -0.0509,-0.43954 -0.0509,-1.11206 v -1.8078 c 0,-0.35091 0.012,-0.6853 0.0346,-1.00269 h 0.24772 c 0.2959,0 0.56,0.009 0.79273,0.026 0.0813,0.005 0.13219,0.0226 0.15604,0.0488 0.0228,0.0262 0.0411,0.11156 0.0539,0.25543 l 0.0314,0.4157 h 0.19743 c 0.005,-0.33229 0.029,-0.67676 0.0689,-1.03396 l -1.75388,0.0216 c -0.20154,0 -0.87273,-0.008 -2.01384,-0.0216 z m -23.699005,0.002 v 0.19712 l 0.24471,0.0261 c 0.15147,0.0139 0.2424,0.0312 0.2728,0.0499 0.0291,0.0194 0.052,0.0464 0.0683,0.081 0.0152,0.0349 0.0304,0.1429 0.0443,0.32477 0.0141,0.1819 0.0207,0.41585 0.0207,0.70179 v 1.74074 c 0,0.4547 -0.008,0.74933 -0.0239,0.88245 -0.0163,0.13315 -0.0477,0.21781 -0.0952,0.25346 -0.048,0.0356 -0.1636,0.0539 -0.34758,0.0539 h -0.0988 v 0.2003 c 0.41042,-0.0152 0.73964,-0.0228 0.98758,-0.0228 0.2576,0 0.66147,0.008 1.211285,0.0228 l 0.49833,0.009 c 0.23402,0 0.47299,-0.0107 0.71674,-0.0346 l -0.007,-0.1429 c 0,-0.15384 0.0284,-0.46334 0.0855,-0.92565 h -0.21208 c -0.0553,0.27936 -0.10944,0.51106 -0.16238,0.69741 -0.11584,0.0419 -0.22644,0.0702 -0.32915,0.082 -0.16118,0.0218 -0.35933,0.0325 -0.59651,0.0325 -0.353005,0 -0.684425,-0.0118 -0.993165,-0.0346 -0.006,-0.12999 -0.01,-0.33328 -0.01,-0.61267 l -0.003,-0.44711 v -0.77732 c 0.19052,-0.0165 0.3744,-0.0252 0.5521,-0.0252 0.479605,0 0.760085,0.0228 0.839245,0.0684 0.0789,0.0453 0.11903,0.1702 0.11903,0.3725 v 0.18398 h 0.2154 c -0.0152,-0.27281 -0.0228,-0.50976 -0.0228,-0.71025 0,-0.19029 0.008,-0.44513 0.0228,-0.76433 h -0.2154 v 0.20558 c 0,0.18217 -0.0337,0.29031 -0.10076,0.32492 -0.0661,0.0359 -0.35091,0.0532 -0.854345,0.0532 -0.16118,0 -0.34639,-0.007 -0.55527,-0.0196 v -0.64424 l 0.006,-0.4882 c 0.006,-0.19816 0.009,-0.39749 0.006,-0.59666 0.31739,-0.0247 0.62071,-0.0378 0.910845,-0.0378 0.36378,0 0.67031,0.0465 0.91901,0.13958 0.0238,0.15489 0.0346,0.3476 0.0346,0.58034 h 0.21676 c 0.008,-0.39944 0.053,-0.72413 0.13323,-0.97338 -0.20155,-0.0194 -0.3997,-0.0271 -0.59651,-0.026 l -0.57718,0.003 -1.218085,0.016 c -0.0972,0 -0.24037,-0.003 -0.42853,-0.01 l -0.33564,-0.01 z m -3.01638,0.27068 c 0.63448,0 1.11521,0.16152 1.44437,0.48519 0.32917,0.32393 0.49349,0.79359 0.49349,1.41053 0,0.70946 -0.19781,1.24847 -0.59303,1.61853 -0.32812,0.30452 -0.78818,0.45603 -1.38048,0.45603 -0.21776,0 -0.46884,-0.0204 -0.75451,-0.0628 -0.0251,-0.33469 -0.0379,-0.6929 -0.0379,-1.07504 v -2.07441 c 0,-0.25895 0.0128,-0.48821 0.0379,-0.69183 0.30403,-0.0443 0.56816,-0.0662 0.79016,-0.0662 z m -10.78428,0.54787 0.79907,1.90992 h -1.5992 z m 34.750045,0 0.79907,1.90992 h -1.5995 z m 9.03358,0 0.79907,1.90992 h -1.5992 z m -59.379695,0.47854 c -0.14911,0 -0.30247,0.0393 -0.46132,0.11631 -0.15775,0.0773 -0.32551,0.17958 -0.50164,0.30588 -0.17638,0.12634 -0.3089,0.26104 -0.39697,0.40467 -0.0883,0.14362 -0.17642,0.36551 -0.2645,0.6669 -0.088,0.30035 -0.13292,0.58312 -0.13292,0.84862 0,0.18921 0.0307,0.34488 0.0915,0.46569 0.0611,0.12084 0.15231,0.21447 0.27521,0.2787 0.12423,0.0653 0.24471,0.0977 0.36344,0.0977 0.36325,0 0.80725,-0.22068 1.32957,-0.66358 l 0.006,-0.0414 -0.0347,-0.0795 -0.036,-0.0131 c -0.40148,0.31449 -0.74537,0.47234 -1.0326,0.47234 -0.15228,0 -0.27198,-0.0567 -0.35664,-0.16857 -0.0849,-0.11324 -0.12748,-0.26551 -0.12748,-0.45603 0,-0.13605 0.0207,-0.30687 0.0631,-0.51026 l 0.15029,-0.0347 c 0.36115,-0.0826 0.67112,-0.18926 0.9311,-0.31872 0.25893,-0.12946 0.43746,-0.26761 0.53548,-0.41359 0.0978,-0.14469 0.14667,-0.30358 0.14667,-0.47657 0,-0.15015 -0.0511,-0.26855 -0.15332,-0.35346 -0.10249,-0.0849 -0.23393,-0.12734 -0.39485,-0.12734 z m -0.22643,0.25785 c 0.0804,0 0.14912,0.0283 0.20679,0.0828 0.0576,0.0553 0.0859,0.14024 0.0859,0.25558 0,0.14911 -0.0533,0.29488 -0.16102,0.43851 -0.10667,0.14256 -0.26125,0.25784 -0.46253,0.3438 -0.20023,0.086 -0.41229,0.1492 -0.63532,0.18927 0.12946,-0.49926 0.2404,-0.81699 0.33292,-0.953 0.0925,-0.13601 0.19909,-0.22952 0.31887,-0.2796 0.11949,-0.0511 0.22522,-0.0773 0.31434,-0.0773 z m -3.21607,0.0328 c 0.21204,0 0.41773,0.0511 0.61796,0.15544 -0.0849,0.39496 -0.14799,0.65622 -0.18806,0.78124 -0.0894,0.27413 -0.22302,0.53206 -0.4015,0.77475 -0.17848,0.24242 -0.3809,0.43505 -0.60603,0.57975 -0.14805,0.0936 -0.26332,0.14032 -0.34379,0.14032 -0.049,0 -0.0849,-0.0228 -0.10876,-0.0674 -0.0231,-0.0448 -0.0349,-0.1241 -0.0349,-0.23837 0,-0.18475 0.0172,-0.37739 0.0521,-0.57551 0.0359,-0.19892 0.085,-0.4003 0.14924,-0.60602 0.0631,-0.20445 0.12842,-0.37733 0.19576,-0.51887 0.0663,-0.14153 0.12081,-0.23413 0.16224,-0.27658 0.0412,-0.0422 0.10324,-0.077 0.18473,-0.10634 0.0818,-0.0283 0.18943,-0.0425 0.32099,-0.0425 z m -1.18169,6.69664 c -0.11978,0 -0.22123,0.0409 -0.30407,0.12507 -0.0823,0.0839 -0.12416,0.18443 -0.12416,0.30211 0,0.11768 0.042,0.21887 0.12613,0.30195 0.0838,0.0841 0.18416,0.12613 0.3021,0.12613 0.11768,0 0.21813,-0.042 0.3012,-0.12613 0.082,-0.0831 0.12387,-0.18427 0.12387,-0.30195 0,-0.11976 -0.0419,-0.22007 -0.12387,-0.30317 -0.0831,-0.0831 -0.18352,-0.12401 -0.3012,-0.12401 z m 2.84796,0 c -0.11976,0 -0.22082,0.0409 -0.30392,0.12507 -0.0823,0.0839 -0.12417,0.18443 -0.12417,0.30211 0,0.11768 0.0419,0.21887 0.12598,0.30195 0.0839,0.0841 0.18416,0.12613 0.30211,0.12613 0.11768,0 0.21812,-0.042 0.3012,-0.12613 0.082,-0.0831 0.12416,-0.18427 0.12416,-0.30195 0,-0.11976 -0.0421,-0.22007 -0.12416,-0.30317 -0.0831,-0.0831 -0.18352,-0.12401 -0.3012,-0.12401 z m 2.8481,0 c -0.11975,0 -0.221,0.0409 -0.30407,0.12507 -0.0823,0.0839 -0.12416,0.18443 -0.12416,0.30211 0,0.11768 0.0418,0.21887 0.12597,0.30195 0.0839,0.0841 0.18431,0.12613 0.30226,0.12613 0.11768,0 0.21798,-0.042 0.30105,-0.12613 0.0823,-0.0831 0.12432,-0.18427 0.12432,-0.30195 0,-0.11976 -0.042,-0.22007 -0.12432,-0.30317 -0.0831,-0.0831 -0.18337,-0.12401 -0.30105,-0.12401 z m 2.84795,0 c -0.11949,0 -0.22084,0.0409 -0.30391,0.12507 -0.0821,0.0839 -0.12432,0.18443 -0.12432,0.30211 0,0.11768 0.0422,0.21887 0.12613,0.30195 0.0839,0.0841 0.18419,0.12613 0.3021,0.12613 0.11768,0 0.21818,-0.042 0.30151,-0.12613 0.082,-0.0831 0.12386,-0.18427 0.12386,-0.30195 0,-0.11976 -0.0418,-0.22007 -0.12386,-0.30317 -0.0833,-0.0831 -0.18383,-0.12401 -0.30151,-0.12401 z m 2.84811,0 c -0.11949,0 -0.221,0.0409 -0.30407,0.12507 -0.0823,0.0839 -0.12386,0.18443 -0.12386,0.30211 0,0.11768 0.0416,0.21887 0.12567,0.30195 0.0839,0.0841 0.18461,0.12613 0.30226,0.12613 0.11768,0 0.21823,-0.042 0.30105,-0.12613 0.0823,-0.0831 0.12432,-0.18427 0.12432,-0.30195 0,-0.11976 -0.042,-0.22007 -0.12432,-0.30317 -0.0828,-0.0831 -0.18337,-0.12401 -0.30105,-0.12401 z m 2.84795,0 c -0.11952,0 -0.22084,0.0409 -0.30392,0.12507 -0.082,0.0839 -0.12431,0.18443 -0.12431,0.30211 0,0.11768 0.0423,0.21887 0.12643,0.30195 0.0839,0.0841 0.18412,0.12613 0.3018,0.12613 0.11766,0 0.2184,-0.042 0.30151,-0.12613 0.082,-0.0831 0.12386,-0.18427 0.12386,-0.30195 0,-0.11976 -0.0418,-0.22007 -0.12386,-0.30317 -0.0831,-0.0831 -0.18385,-0.12401 -0.30151,-0.12401 z m 2.84841,0 c -0.11979,0 -0.22099,0.0409 -0.30407,0.12507 -0.0825,0.0839 -0.12432,0.18443 -0.12432,0.30211 0,0.11768 0.0417,0.21887 0.12583,0.30195 0.0841,0.0841 0.18461,0.12613 0.30256,0.12613 0.11765,0 0.21795,-0.042 0.30105,-0.12613 0.082,-0.0831 0.12432,-0.18427 0.12432,-0.30195 0,-0.11976 -0.0423,-0.22007 -0.12432,-0.30317 -0.0831,-0.0831 -0.1834,-0.12401 -0.30105,-0.12401 z m 2.84765,0 c -0.11952,0 -0.22055,0.0409 -0.30392,0.12507 -0.082,0.0839 -0.12431,0.18443 -0.12431,0.30211 0,0.11768 0.0421,0.21887 0.12628,0.30195 0.0839,0.0841 0.18427,0.12613 0.30195,0.12613 0.11768,0 0.21843,-0.042 0.3015,-0.12613 0.0823,-0.0831 0.12387,-0.18427 0.12387,-0.30195 0,-0.11976 -0.0416,-0.22007 -0.12387,-0.30317 -0.0831,-0.0831 -0.18382,-0.12401 -0.3015,-0.12401 z m 2.84826,0 c -0.1195,0 -0.22085,0.0409 -0.30392,0.12507 -0.0823,0.0839 -0.12432,0.18443 -0.12432,0.30211 0,0.11768 0.042,0.21887 0.12613,0.30195 0.0839,0.0841 0.18416,0.12613 0.30211,0.12613 0.11768,0 0.21813,-0.042 0.3012,-0.12613 0.082,-0.0831 0.12416,-0.18427 0.12416,-0.30195 0,-0.11976 -0.0421,-0.22007 -0.12416,-0.30317 -0.0831,-0.0831 -0.18352,-0.12401 -0.3012,-0.12401 z m 2.8481,0 c -0.11976,0 -0.22099,0.0409 -0.30407,0.12507 -0.0823,0.0839 -0.12416,0.18443 -0.12416,0.30211 0,0.11768 0.0419,0.21887 0.12598,0.30195 0.0839,0.0841 0.18459,0.12613 0.30225,0.12613 0.11768,0 0.21798,-0.042 0.30105,-0.12613 0.0823,-0.0831 0.12432,-0.18427 0.12432,-0.30195 0,-0.11976 -0.042,-0.22007 -0.12432,-0.30317 -0.0831,-0.0831 -0.18337,-0.12401 -0.30105,-0.12401 z m 2.84796,0 c -0.1195,0 -0.22058,0.0409 -0.30392,0.12507 -0.0823,0.0839 -0.12432,0.18443 -0.12432,0.30211 0,0.11768 0.042,0.21887 0.12613,0.30195 0.0839,0.0841 0.18445,0.12613 0.30211,0.12613 0.11768,0 0.21843,-0.042 0.3015,-0.12613 0.082,-0.0831 0.12386,-0.18427 0.12386,-0.30195 0,-0.11976 -0.0418,-0.22007 -0.12386,-0.30317 -0.0831,-0.0831 -0.18382,-0.12401 -0.3015,-0.12401 z m 2.8481,0 c -0.11952,0 -0.22099,0.0409 -0.30407,0.12507 -0.082,0.0839 -0.12416,0.18443 -0.12416,0.30211 0,0.11768 0.0421,0.21887 0.12597,0.30195 0.0841,0.0841 0.18457,0.12613 0.30226,0.12613 0.11765,0 0.21801,-0.042 0.30135,-0.12613 0.082,-0.0831 0.12402,-0.18427 0.12402,-0.30195 0,-0.11976 -0.042,-0.22007 -0.12402,-0.30317 -0.0833,-0.0831 -0.1837,-0.12401 -0.30135,-0.12401 z m 2.84796,0 c -0.11953,0 -0.2207,0.0409 -0.30377,0.12507 -0.0826,0.0839 -0.12417,0.18443 -0.12417,0.30211 0,0.11768 0.0417,0.21887 0.12583,0.30195 0.0839,0.0841 0.18442,0.12613 0.30211,0.12613 0.11791,0 0.21839,-0.042 0.3015,-0.12613 0.082,-0.0831 0.12416,-0.18427 0.12416,-0.30195 0,-0.11976 -0.0421,-0.22007 -0.12416,-0.30317 -0.0831,-0.0831 -0.18359,-0.12401 -0.3015,-0.12401 z m 2.848395,0 c -0.11978,0 -0.22123,0.0409 -0.30407,0.12507 -0.0823,0.0839 -0.12431,0.18443 -0.12431,0.30211 0,0.11768 0.042,0.21887 0.12612,0.30195 0.0839,0.0841 0.18431,0.12613 0.30226,0.12613 0.11768,0 0.21798,-0.042 0.30105,-0.12613 0.0823,-0.0831 0.12402,-0.18427 0.12402,-0.30195 0,-0.11976 -0.0417,-0.22007 -0.12402,-0.30317 -0.0831,-0.0831 -0.18337,-0.12401 -0.30105,-0.12401 z m 2.84796,0 c -0.1195,0 -0.22097,0.0409 -0.30407,0.12507 -0.0823,0.0839 -0.12417,0.18443 -0.12417,0.30211 0,0.11768 0.042,0.21887 0.12583,0.30195 0.0841,0.0841 0.18446,0.12613 0.30241,0.12613 0.11767,0 0.21802,-0.042 0.30135,-0.12613 0.0818,-0.0831 0.12401,-0.18427 0.12401,-0.30195 0,-0.11976 -0.0422,-0.22007 -0.12401,-0.30317 -0.0833,-0.0831 -0.18367,-0.12401 -0.30135,-0.12401 z m 2.84795,0 c -0.11975,0 -0.22085,0.0409 -0.30392,0.12507 -0.0823,0.0839 -0.12416,0.18443 -0.12416,0.30211 0,0.11768 0.0419,0.21887 0.12597,0.30195 0.0839,0.0841 0.18443,0.12613 0.30211,0.12613 0.11769,0 0.21813,-0.042 0.3012,-0.12613 0.0823,-0.0831 0.12401,-0.18427 0.12401,-0.30195 0,-0.11976 -0.0417,-0.22007 -0.12401,-0.30317 -0.0831,-0.0831 -0.18351,-0.12401 -0.3012,-0.12401 z m 2.8481,0 c -0.11949,0 -0.22099,0.0409 -0.30407,0.12507 -0.0821,0.0839 -0.12416,0.18443 -0.12416,0.30211 0,0.11768 0.0422,0.21887 0.12613,0.30195 0.0838,0.0841 0.18419,0.12613 0.3021,0.12613 0.11769,0 0.21828,-0.042 0.30135,-0.12613 0.0818,-0.0831 0.12402,-0.18427 0.12402,-0.30195 0,-0.11976 -0.0422,-0.22007 -0.12402,-0.30317 -0.0831,-0.0831 -0.18366,-0.12401 -0.30135,-0.12401 z m 2.84826,0 c -0.12002,0 -0.22111,0.0409 -0.30392,0.12507 -0.0826,0.0839 -0.12432,0.18443 -0.12432,0.30211 0,0.11768 0.0417,0.21887 0.12583,0.30195 0.0841,0.0841 0.18449,0.12613 0.30241,0.12613 0.11768,0 0.21808,-0.042 0.3009,-0.12613 0.0823,-0.0831 0.12416,-0.18427 0.12416,-0.30195 0,-0.11976 -0.0419,-0.22007 -0.12416,-0.30317 -0.0828,-0.0831 -0.18322,-0.12401 -0.3009,-0.12401 z m 2.8478,0 c -0.11952,0 -0.22073,0.0409 -0.30407,0.12507 -0.082,0.0839 -0.12416,0.18443 -0.12416,0.30211 0,0.11768 0.0421,0.21887 0.12598,0.30195 0.0838,0.0841 0.18457,0.12613 0.30225,0.12613 0.11766,0 0.21825,-0.042 0.30135,-0.12613 0.082,-0.0831 0.12402,-0.18427 0.12402,-0.30195 0,-0.11976 -0.042,-0.22007 -0.12402,-0.30317 -0.0831,-0.0831 -0.18369,-0.12401 -0.30135,-0.12401 z m 2.84826,0 c -0.11979,0 -0.22124,0.0409 -0.30407,0.12507 -0.0823,0.0839 -0.12417,0.18443 -0.12417,0.30211 0,0.11768 0.042,0.21887 0.12613,0.30195 0.0839,0.0841 0.18416,0.12613 0.30211,0.12613 0.11768,0 0.2181,-0.042 0.3012,-0.12613 0.082,-0.0831 0.12386,-0.18427 0.12386,-0.30195 0,-0.11976 -0.0418,-0.22007 -0.12386,-0.30317 -0.0831,-0.0831 -0.18352,-0.12401 -0.3012,-0.12401 z m 2.8481,0 c -0.11976,0 -0.22098,0.0409 -0.30407,0.12507 -0.0823,0.0839 -0.12416,0.18443 -0.12416,0.30211 0,0.11768 0.0418,0.21887 0.12598,0.30195 0.0839,0.0841 0.18431,0.12613 0.30225,0.12613 0.11768,0 0.21798,-0.042 0.30105,-0.12613 0.082,-0.0831 0.12432,-0.18427 0.12432,-0.30195 0,-0.11976 -0.0423,-0.22007 -0.12432,-0.30317 -0.0831,-0.0831 -0.18337,-0.12401 -0.30105,-0.12401 z m 2.84796,0 c -0.1195,0 -0.22099,0.0409 -0.30407,0.12507 -0.0823,0.0839 -0.12417,0.18443 -0.12417,0.30211 0,0.11768 0.0419,0.21887 0.12598,0.30195 0.0839,0.0841 0.18457,0.12613 0.30226,0.12613 0.11768,0 0.21839,-0.042 0.3012,-0.12613 0.0823,-0.0831 0.12416,-0.18427 0.12416,-0.30195 0,-0.11976 -0.0419,-0.22007 -0.12416,-0.30317 -0.0828,-0.0831 -0.18352,-0.12401 -0.3012,-0.12401 z m 2.84901,0 c -0.11977,0 -0.22085,0.0409 -0.30392,0.12507 -0.0823,0.0839 -0.12432,0.18443 -0.12432,0.30211 0,0.11768 0.042,0.21887 0.12613,0.30195 0.0839,0.0841 0.18416,0.12613 0.30211,0.12613 0.11768,0 0.21812,-0.042 0.3012,-0.12613 0.082,-0.0831 0.12416,-0.18427 0.12416,-0.30195 0,-0.11976 -0.0421,-0.22007 -0.12416,-0.30317 -0.0831,-0.0831 -0.18352,-0.12401 -0.3012,-0.12401 z m 2.8481,0 c -0.11949,0 -0.221,0.0409 -0.30407,0.12507 -0.0823,0.0839 -0.12416,0.18443 -0.12416,0.30211 0,0.11768 0.0418,0.21887 0.12598,0.30195 0.0839,0.0841 0.18459,0.12613 0.30225,0.12613 0.11768,0 0.21825,-0.042 0.30105,-0.12613 0.0823,-0.0831 0.12432,-0.18427 0.12432,-0.30195 0,-0.11976 -0.042,-0.22007 -0.12432,-0.30317 -0.0828,-0.0831 -0.18337,-0.12401 -0.30105,-0.12401 z" />
  </g>
</svg>
