<?xml version="1.0" encoding="UTF-8"?>
<!-- Created with Inkscape (http://www.inkscape.org/) -->
<svg width="31.719" height="6.5105" version="1.1" viewBox="0 0 31.719 6.5105" xmlns="http://www.w3.org/2000/svg">
 <g transform="translate(-10.79 -1.2858)">
  <path d="m14.045 1.2858a3.2552 3.2552 0 0 0-3.2552 3.2552 3.2552 3.2552 0 0 0 3.2552 3.2552 3.2552 3.2552 0 0 0 3.2552-3.2552 3.2552 3.2552 0 0 0-3.2552-3.2552zm12.622 0a3.2552 3.2552 0 0 0-3.2552 3.2552 3.2552 3.2552 0 0 0 3.2552 3.2552 3.2552 3.2552 0 0 0 3.2552-3.2552 3.2552 3.2552 0 0 0-3.2552-3.2552zm12.586 0a3.2552 3.2552 0 0 0-3.2552 3.2552 3.2552 3.2552 0 0 0 3.2552 3.2552 3.2552 3.2552 0 0 0 3.2552-3.2552 3.2552 3.2552 0 0 0-3.2552-3.2552z" style="stroke-width:.96303"/>
 </g>
</svg>
