<svg width="307.65" height="162" version="1.1" viewBox="0 0 81.4 42.862" xmlns="http://www.w3.org/2000/svg">
 <path d="m41.421 0.19034c-1.223-1.91e-5 -2.4674 0.23273-3.3977 0.63269-2.4745 1.0795-4.2044 2.4609-5.4545 4.9827-0.45379 0.91542-0.90746 2.2194-0.90746 3.3248-0.29111 4.4476 2.1749 8.3251 6.6016 10.147 2.8084 1.1572 7.269 0.60486 9.6236-1.3728 0.96754-0.81178 1.9266-2.1244 2.406-3.2212 0.17124-0.38862 0.45388-0.89838 0.68505-1.5202h-5.0858c-2.0464 0-5.5225 0.23328-6.0192-2.7721-0.58222-3.5494 3.8358-4.8624 5.9592-1.9434 0.53087 0.74271 0.28266 3.351 0.50529 1.0278 0.1541-1.589-0.43705-3.2127-2.629-4.1108-0.62504-0.25045-1.7894-0.44051-2.3288-0.52688 1.447-0.96724 4.8464-0.02585 5.129 0.52688-1.2158-2.2972-4.2729-2.7116-4.5298-2.6943 1.1131-0.4318 3.5619 0.20735 4.4353 0.5096 1.3956 0.48362 2.552 1.2607 3.6822 2.5216 0.49661 0.54408 1.0359 1.3734 1.2756 1.9434-0.23117-0.7686-0.38552-1.3821-1.0106-2.3925-1.5755-2.5304-3.7587-3.7736-6.5671-4.7149-0.7096-0.23858-1.5363-0.34764-2.3731-0.34765zm4.6123 24.206v0.24401h0.24023c0.1221 0 0.21755 0.02239 0.28395 0.0664 0.06762 0.04354 0.11932 0.09408 0.15385 0.14953 0.03455 0.0557 0.05552 0.1583 0.05938 0.30933 8e-3 0.35414 0.01188 0.71345 0.01188 1.0754v1.9305c0 0.48911-0.01346 0.87668-0.04265 1.1617-0.01316 0.13791-0.04483 0.22916-0.09663 0.27586-0.05157 0.04645-0.16154 0.07018-0.32984 0.07018h-0.28017v0.24508c0.56744-0.01846 0.92938-0.02753 1.0872-0.02753 0.2279 0 0.48257 9e-3 0.76495 0.02753v-0.24509l-0.24778-0.01998c-0.20432-0.01727-0.32855-0.04612-0.37087-0.08745-0.04256-0.03941-0.07305-0.15112-0.09177-0.33524-0.02239-0.24128-0.03455-0.66711-0.03455-1.2783v-2.6835l2.7926 3.4485c0.31691 0.38842 0.61782 0.7424 0.9053 1.0608 0.05181 0.05691 0.10665 0.09793 0.16357 0.122 0.05716 0.02507 0.26112 0.06506 0.61379 0.1193-0.04111-0.65498-0.06208-1.2187-0.06208-1.6908v-1.7518c0-1.0274 0.01194-1.595 0.03455-1.701 0.03699-0.16051 0.17464-0.24131 0.41567-0.24131h0.29853v-0.24401c-0.38063 0.01722-0.69047 0.02645-0.93175 0.02645-0.23082 0-0.55425-0.0092-0.97062-0.02645v0.24401l0.29151 0.02807c0.26122 0.0253 0.41086 0.08729 0.44806 0.18408 0.03697 0.09681 0.0556 0.66734 0.0556 1.7107v2.494c-0.21208-0.2279-0.55782-0.63386-1.0365-1.22l-1.3291-1.6308c-0.24248-0.30109-0.47864-0.59946-0.70556-0.89667-0.22521-0.29551-0.46752-0.60037-0.72338-0.9134-0.22278 0.01722-0.42728 0.02645-0.61433 0.02645-0.17365 0-0.42424-0.0092-0.75307-0.02645zm-45.959 0.15925v0.244h0.27586c0.23081 0 0.36718 0.04401 0.40973 0.1328 0.04354 0.08755 0.06478 0.49696 0.06478 1.2276v1.1844l-0.0081 0.73849c0 0.49447 0.034713 0.84446 0.10257 1.05 0.06883 0.20552 0.18045 0.38052 0.33416 0.52256 0.15518 0.14302 0.38462 0.26244 0.68937 0.35899 0.30644 0.09703 0.66196 0.14575 1.0689 0.14575 0.39401 0 0.73568-0.05406 1.0273-0.16303 0.29185-0.10846 0.52544-0.25588 0.69909-0.44267 0.17514-0.18705 0.29553-0.39501 0.36169-0.62729 0.06639-0.23203 0.09987-0.68036 0.09987-1.3458v-1.457c0-0.66301 0.02777-1.0488 0.08637-1.159 0.05814-0.10992 0.19056-0.16573 0.39462-0.16573h0.26398v-0.244c-0.35001 0.0173-0.64162 0.02645-0.87777 0.02645-0.14448 0-0.48542-0.0092-1.0224-0.02645v0.244h0.20298c0.2746 0 0.44154 0.04871 0.50259 0.14576 0.0608 0.0968 0.09177 0.4852 0.09177 1.1628v1.4657c0 0.65499-0.04827 1.1001-0.1436 1.3334-0.09681 0.23494-0.24755 0.40738-0.45454 0.51878-0.30086 0.16051-0.66965 0.24131-1.1072 0.24131-0.42418 0-0.76426-0.07558-1.0187-0.22565-0.25319-0.14957-0.41076-0.33403-0.47182-0.55171-0.06103-0.21745-0.09177-0.60421-0.09177-1.1612v-1.5223c0-0.75178 0.02513-1.1736 0.0745-1.2665 0.04889-0.09412 0.19616-0.14036 0.43889-0.14036h0.28341v-0.244c-0.4918 0.0173-0.86443 0.02645-1.1191 0.02645-0.24005 0-0.62573-0.0092-1.1574-0.02645zm59.817 1.1525c-0.52754 0-0.9728 0.08939-1.3345 0.26938-0.36263 0.17974-0.64278 0.43316-0.84052 0.75955-0.19821 0.32641-0.29745 0.69757-0.29745 1.1115s0.09817 0.78537 0.29421 1.1142c0.19701 0.32858 0.47699 0.58548 0.84376 0.7725 0.36556 0.18607 0.7899 0.2791 1.2729 0.2791 0.23543 0 0.46921-0.02897 0.70125-0.08637 0.23301-0.05836 0.46458-0.14349 0.69369-0.25804 0.03528-0.09121 0.07443-0.18298 0.11552-0.2737l-0.06208-0.05884c-0.19409 0.14375-0.38843 0.23794-0.58032 0.28341-0.25733 0.06008-0.51708 0.09015-0.77952 0.09015-0.33247 0-0.64683-0.08608-0.94525-0.25804-0.29818-0.17267-0.52871-0.40772-0.69045-0.70395-0.16198-0.29673-0.24293-0.63447-0.24293-1.0122 0-0.54068 0.15993-0.97039 0.47829-1.2929 0.3196-0.32154 0.74355-0.48261 1.274-0.48261 0.20794 0 0.40678 0.0279 0.59868 0.0853 0.19092 0.05741 0.3736 0.14315 0.54847 0.25966l0.02429 0.52364h0.1965c0.01412-0.38308 0.06447-0.67975 0.15277-0.88965-0.11552-0.02092-0.26538-0.05309-0.45022-0.09663-0.37043-0.09023-0.6939-0.1355-0.97116-0.1355zm6.0165 0c-0.69219 0-1.2471 0.19693-1.6632 0.59166-0.4159 0.39402-0.62351 0.91468-0.62351 1.5607 0 0.42709 0.08943 0.80677 0.26722 1.1385 0.17878 0.33151 0.422 0.58337 0.7304 0.75631 0.30841 0.17267 0.67513 0.25912 1.1013 0.25912 0.68004 0 1.2446-0.21989 1.6918-0.65914 0.44678-0.43997 0.67101-0.98644 0.67101-1.6395 0-0.60682-0.19271-1.0921-0.5787-1.4586-0.38477-0.3658-0.91698-0.54901-1.5963-0.54901zm-11.144 0.02645c-0.07832 0.21988-0.22615 0.57349-0.44212 1.0597l-0.80867 1.8338c-0.14569 0.32761-0.28861 0.63264-0.42701 0.91502-0.04548 0.09632-0.08834 0.15663-0.12848 0.18192-0.04036 0.02432-0.12849 0.03847-0.26614 0.04265l-0.08853 0.0028v0.1857c0.21403-0.01415 0.46206-0.02106 0.74443-0.02106 0.23617 0 0.44816 0.0069 0.63592 0.02106v-0.18574l-0.28233-0.03185c-0.10071-0.01216-0.1627-0.02855-0.18678-0.04751-0.02432-0.01996-0.03725-0.05192-0.03725-0.09717 0-0.07052 0.06654-0.26356 0.19812-0.57708l0.19974-0.47397h1.701l0.32444 0.81839c0.05814 0.14884 0.08745 0.24137 0.08745 0.2764 0 0.03331-0.01412 0.06143-0.04427 0.08259-0.01896 0.01412-0.08101 0.0254-0.18462 0.03239l-0.29151 0.0178v0.1857c0.35852-0.01415 0.64591-0.02106 0.86212-0.02106 0.23179 0 0.47525 0.0069 0.7304 0.02106v-0.1857c-0.15178-8e-3 -0.24822-0.02203-0.29151-0.04319-0.04329-0.02018-0.08135-0.05441-0.11444-0.10257-0.03429-0.04816-0.10011-0.18966-0.20082-0.42485l-1.4889-3.4652zm20.743 0c-0.07808 0.21988-0.22536 0.57349-0.44159 1.0597l-0.80867 1.8338c-0.14569 0.32761-0.28893 0.63264-0.42755 0.91502-0.04525 0.09632-0.08811 0.15663-0.12848 0.18192-0.04038 0.02432-0.12847 0.03847-0.26614 0.04265l-0.08853 0.0028v0.1857c0.21404-0.01415 0.46204-0.02106 0.74443-0.02106 0.23615 0 0.44817 0.0069 0.63592 0.02106v-0.18574l-0.28234-0.03185c-0.10046-0.01216-0.16271-0.02855-0.18678-0.04751-0.02435-0.01996-0.03725-0.05192-0.03725-0.09717 0-0.07052 0.06679-0.26356 0.19812-0.57708l0.19974-0.47397h1.701l0.32498 0.81839c0.05815 0.14884 0.08691 0.24137 0.08691 0.2764 0 0.03331-0.01357 0.06143-0.04373 0.08259-0.01896 0.01412-0.08182 0.0254-0.18516 0.03239l-0.29097 0.0178v0.1857c0.3585-0.01415 0.64561-0.02106 0.86158-0.02106 0.23203 0 0.475 0.0069 0.7304 0.02106v-0.1857c-0.15178-8e-3 -0.24792-0.02203-0.29097-0.04319-0.04329-0.02018-0.08166-0.05441-0.11498-0.10257-0.03406-0.04816-0.10012-0.18966-0.20082-0.42485l-1.4889-3.4652zm-13.875 0.03293v0.18516h0.23861c0.15662 0 0.25065 0.04012 0.28179 0.12038 0.03234 0.08052 0.0475 0.51368 0.0475 1.2983v0.99761c0 0.75762-0.01802 1.1801-0.05452 1.2686-0.03599 0.08852-0.14532 0.1328-0.32822 0.1328h-0.18516v0.18624c0.26632-0.01418 0.56623-0.02159 0.89774-0.02159 0.28431 0 0.54743 0.0075 0.7887 0.02159v-0.18624h-0.1938c-0.18096 0-0.28759-0.03901-0.32066-0.1166-0.03333-0.0771-0.05074-0.49736-0.05074-1.2611v-1.016c0-0.53752 0.0051-0.91134 0.01512-1.1212 0.0051-0.13573 0.02651-0.21987 0.06154-0.25318 0.03501-0.03307 0.12276-0.04967 0.26236-0.04967h0.22619v-0.18516c-0.21501 0.01294-0.4563 0.01998-0.72068 0.01998-0.31862 0-0.6401-0.0071-0.96576-0.01998zm6.7231 0v0.18516h0.18138c0.09268 0 0.16475 0.01658 0.21486 0.04967 0.05157 0.03332 0.09112 0.07183 0.11714 0.1139 0.02601 0.04208 0.04188 0.11972 0.0448 0.23429 0.0062 0.26802 0.0092 0.54026 0.0092 0.81461v1.463c0 0.37115-0.01025 0.66451-0.03239 0.88047-0.01 0.10435-0.03396 0.17335-0.07288 0.20838-0.0394 0.0355-0.12305 0.05344-0.25048 0.05344h-0.21162v0.1857c0.43-0.01415 0.70413-0.02106 0.82379-0.02106 0.17294 0 0.36575 0.0069 0.57978 0.02106v-0.1857l-0.18786-0.01512c-0.15494-0.01313-0.24915-0.03526-0.28126-0.0664-0.03211-0.03016-0.05553-0.11411-0.06964-0.25372-0.01703-0.1829-0.0259-0.50568-0.0259-0.969v-2.0336l2.1156 2.6133c0.24006 0.29431 0.4685 0.56278 0.68667 0.80381 0.03914 0.04328 0.08033 0.07431 0.12362 0.09231 0.04305 0.01921 0.19726 0.04936 0.4648 0.09069-0.03138-0.49641-0.04697-0.92378-0.04697-1.2816v-1.3269c0-0.77878 0.0089-1.2089 0.0259-1.2891 0.02798-0.12162 0.1329-0.18246 0.3158-0.18246h0.22619v-0.18516c-0.28846 0.01293-0.52374 0.01998-0.70664 0.01998-0.17464 0-0.42033-0.0071-0.7358-0.01998v0.18516l0.22133 0.02051c0.19796 0.01921 0.31135 0.06637 0.33956 0.13982 0.02799 0.07321 0.04211 0.5052 0.04211 1.2961v1.89c-0.16078-0.17269-0.42312-0.48008-0.786-0.92419l-1.0062-1.2357c-0.18387-0.22813-0.36302-0.45444-0.53498-0.67965-0.17073-0.22401-0.35462-0.45494-0.54847-0.69207-0.16905 0.01294-0.32302 0.01998-0.4648 0.01998-0.13159 0-0.32155-0.0071-0.57061-0.01998zm9.7154 0v0.18516h0.32174c0.13159 0 0.21105 0.03412 0.24023 0.10149 0.02823 0.06834 0.04211 0.39528 0.04211 0.98412v1.62c0 0.5436-0.01387 0.85396-0.04211 0.93229-0.02918 0.07832-0.12166 0.15243-0.27855 0.22079v0.15601c0.3979-0.02092 0.69119-0.03239 0.87993-0.03239l1.4009 0.02322c0.30645 0 0.54763-0.01382 0.72446-0.04373 0.02723-0.32154 0.06559-0.66851 0.11499-1.0392h-0.1911l-0.17706 0.69207c-0.15469 0.04133-0.30551 0.06947-0.45022 0.08529-0.20796 0.01915-0.49644 0.02915-0.86589 0.02915-0.18194 0-0.36953-0.0051-0.56143-0.01512l0.0086-0.17275-0.0086-0.83081v-1.8748c0-0.43682 0.0128-0.68651 0.04103-0.74659 0.02747-0.05959 0.09343-0.08907 0.19704-0.08907h0.36493v-0.18516c-0.34876 0.01294-0.62643 0.01998-0.83027 0.01998-0.15274 0-0.46346-0.0071-0.93068-0.01998zm-51.213 0.061c-0.48936 0-0.87097 0.12171-1.1482 0.36493-0.27629 0.24299-0.41514 0.55647-0.41514 0.93931 3e-6 0.22521 0.04526 0.41407 0.1355 0.56683 0.09048 0.15175 0.21552 0.26307 0.37411 0.33362 0.15882 0.07126 0.46 0.12319 0.90314 0.15871 0.3337 0.02796 0.56258 0.06821 0.68613 0.12146 0.1238 0.05254 0.21992 0.1339 0.28827 0.24238 0.06834 0.10968 0.10365 0.2423 0.10365 0.39894 0 0.26924-0.10126 0.49118-0.30338 0.66508-0.20185 0.17487-0.48832 0.26236-0.85996 0.26236-0.17171 0-0.33377-0.02032-0.48261-0.06046-0.14958-0.04012-0.27696-0.09854-0.38544-0.17491-0.07224-0.05107-0.11908-0.09944-0.13928-0.14468-0.01896-0.045-0.02915-0.16279-0.02915-0.35251v-0.14792h-0.19974c0.0019 0.36872-0.01492 0.67129-0.0502 0.90746 0.19385 0.07417 0.38706 0.13078 0.5787 0.16897 0.19119 0.03794 0.38108 0.05723 0.57007 0.05723 0.54968 0 0.9887-0.14202 1.3183-0.42755 0.32956-0.28433 0.49449-0.62382 0.49449-1.0176 0-0.19701-0.04232-0.36683-0.12794-0.5096-0.08537-0.14349-0.19896-0.2466-0.34172-0.31203-0.14155-0.06421-0.41504-0.11662-0.82001-0.15601-0.40375-0.03722-0.66824-0.0815-0.79302-0.13064-0.12428-0.05034-0.22347-0.13149-0.29691-0.24508-0.07444-0.1126-0.11067-0.24693-0.11067-0.4038 0-0.24906 0.08939-0.45442 0.26938-0.61325 0.17973-0.15882 0.42616-0.23807 0.74065-0.23807 0.19189 0 0.37481 0.03179 0.54847 0.09285 0.1739 0.0625 0.28119 0.12054 0.32228 0.17599 0.04111 0.05399 0.06154 0.15821 0.06154 0.31094v0.23537h0.20406c0.0039-0.33734 0.03331-0.60811 0.08853-0.81191-0.19897-0.08659-0.39711-0.15064-0.59436-0.19272-0.19676-0.04234-0.39372-0.0637-0.5895-0.0637zm10.493 0.02645c-0.07832 0.22012-0.22584 0.5735-0.44159 1.0597l-0.80921 1.8338c-0.14569 0.32761-0.28814 0.63294-0.42701 0.91556-0.04525 0.09631-0.08835 0.15631-0.12848 0.18138-0.04014 0.02407-0.12902 0.03878-0.26668 0.04265l-0.08799 0.0028v0.18624c0.21404-0.01407 0.4623-0.02106 0.74443-0.02106 0.23617 0 0.44792 0.0069 0.63592 0.02106v-0.18624l-0.28233-0.03185c-0.10044-0.01216-0.16272-0.0283-0.18678-0.04751-0.02432-0.01996-0.03725-0.05193-0.03725-0.09717 0-0.07028 0.06655-0.26303 0.19812-0.57654l0.19974-0.47452h1.701l0.32444 0.81893c0.05812 0.14863 0.08799 0.24112 0.08799 0.2764 0 0.03307-0.01434 0.06114-0.04427 0.08206-0.01921 0.0141-0.08154 0.0254-0.18516 0.03239l-0.29151 0.0178v0.18624c0.3585-0.01407 0.64589-0.02106 0.86212-0.02106 0.23201 0 0.47527 0.0069 0.7304 0.02106v-0.18624c-0.15152-8e-3 -0.24792-0.02203-0.29097-0.04319-0.04353-0.01993-0.08137-0.05411-0.11444-0.10203-0.03429-0.04865-0.10093-0.19045-0.20136-0.42539l-1.4889-3.4652zm-13.984 0.0243c-0.1238 0-0.3271 0.0051-0.60947 0.01404-0.24419 0.01-0.42963 0.01512-0.55927 0.01512-0.19288 0-0.47137-0.0081-0.8362-0.02322v0.18786h0.15871c0.19992 0 0.31844 0.03614 0.35467 0.10958 0.03625 0.07224 0.05452 0.41247 0.05452 1.0203v1.416c0 0.70144-0.0154 1.0883-0.04751 1.1617-0.03114 0.07321-0.13028 0.11013-0.29907 0.11013h-0.22133v0.18624c0.4412-0.01407 0.74678-0.02106 0.91556-0.02106 0.2138 0 0.48312 0.0069 0.80975 0.02106v-0.18624h-0.22997c-0.1829 0-0.29059-0.03797-0.3239-0.11337-0.03284-0.07541-0.05021-0.45937-0.05021-1.1525v-1.4219c0-0.35463 0.01253-0.68778 0.03563-1.0003 0.20796-0.07637 0.41451-0.11444 0.62027-0.11444 0.29649 0 0.52386 0.07114 0.68073 0.21269 0.15663 0.14278 0.23591 0.34087 0.23591 0.59382 0 0.28237-0.09317 0.50736-0.27802 0.67641-0.18581 0.16879-0.44242 0.25318-0.7698 0.25318-0.05545 0-0.13959-0.0051-0.25318-0.01404l-0.03023 0.09933c0.22206 0.24686 0.42997 0.50028 0.62405 0.75955l1.043 1.4079c0.12355-0.01407 0.24111-0.02106 0.35251-0.02106 0.1216 0 0.26405 0.0069 0.42701 0.02106v-0.18624h-0.07612c-0.03503 0-0.07033-0.0089-0.10365-0.0259-0.03307-0.01824-0.0996-0.08935-0.20028-0.21485l-0.56573-0.73364c-0.28433-0.36654-0.52229-0.68826-0.7142-0.96576 0.37797-0.07832 0.6675-0.22303 0.86644-0.43511 0.20018-0.21185 0.29907-0.45583 0.29907-0.73309 0-0.18801-0.0462-0.34961-0.13766-0.48531-0.09022-0.13571-0.22387-0.23915-0.39948-0.31041-0.17584-0.07225-0.43297-0.10743-0.7725-0.10743zm9.2652 0.0059-0.6451 0.01081-0.7914 0.0059c-0.1114 0-0.32972-0.0048-0.6532-0.01404v0.18516l0.23537 0.03509c0.1396 0.01996 0.21984 0.04125 0.24292 0.06532 0.02214 0.02333 0.03987 0.10826 0.05398 0.25588 0.02407 0.25344 0.03509 0.55394 0.03509 0.90368v0.85402c0 0.75956-0.01484 1.2907-0.04697 1.5952l-0.27316 0.16195v0.1409c0.24541-0.02336 0.44687-0.03509 0.6057-0.03509 0.09462 0 0.31964 0.0069 0.67425 0.02106l0.36277 0.0075c0.7192 0 1.303-0.21605 1.7491-0.64996 0.44729-0.43391 0.67047-0.98271 0.67047-1.646 0-0.32761-0.0583-0.61574-0.17383-0.86698-0.11552-0.25004-0.28431-0.45816-0.50636-0.62405-0.22208-0.16563-0.46934-0.27613-0.74173-0.33038-0.27337-0.0552-0.53861-0.07998-0.79788-0.07612zm9.3553 0-0.6451 0.01133-0.79194 0.0054c-0.1114 0-0.32919-0.0048-0.65266-0.01404v0.18516l0.23483 0.03509c0.1396 0.01995 0.22006 0.04125 0.24292 0.06532 0.02214 0.02333 0.04018 0.10826 0.05453 0.25588 0.0241 0.25344 0.03509 0.55394 0.03509 0.90368v0.85402c0 0.75956-0.01484 1.2907-0.04697 1.5952l-0.27316 0.16195v0.1409c0.24492-0.02336 0.44711-0.03509 0.6057-0.03509 0.09436 0 0.31965 0.0069 0.67425 0.02106l0.36223 0.0075c0.71946 0 1.3033-0.21605 1.7496-0.64996 0.44704-0.43391 0.66994-0.98271 0.66994-1.646 0-0.32761-0.05805-0.61574-0.17382-0.86698-0.11553-0.25004-0.28399-0.45816-0.50583-0.62405-0.2223-0.16563-0.46958-0.27613-0.74173-0.33038-0.27339-0.0552-0.53886-0.07998-0.79788-0.07612zm-35.743 0.0028v0.18516h0.18192c0.09268 0 0.16505 0.01683 0.21539 0.04967 0.05131 0.03331 0.09004 0.07183 0.11606 0.1139 0.02603 0.04207 0.04221 0.11996 0.04535 0.23429 0.0061 0.26827 0.0092 0.54056 0.0092 0.81515v1.4624c0 0.3709-0.01003 0.6645-0.03239 0.88047-0.01 0.10459-0.03395 0.17367-0.07288 0.20892-0.0394 0.03528-0.12305 0.0529-0.25048 0.0529h-0.21216v0.18624c0.43-0.01407 0.70437-0.02106 0.82379-0.02106 0.17294 0 0.36575 0.0069 0.57978 0.02106v-0.18624l-0.18732-0.01512c-0.15494-0.01313-0.24969-0.03526-0.28179-0.0664-0.03211-0.02992-0.05501-0.1141-0.0691-0.25372-0.01729-0.1829-0.02645-0.50591-0.02645-0.969v-2.0336l2.1162 2.6139c0.24031 0.29429 0.46819 0.56255 0.68613 0.80381 0.03915 0.04305 0.08033 0.07431 0.12362 0.09231 0.0433 0.01896 0.19805 0.04903 0.46534 0.09015-0.03114-0.49617-0.04697-0.92351-0.04697-1.281v-1.3275c1e-6 -0.77878 0.0089-1.2086 0.02591-1.2891 0.02821-0.12162 0.13237-0.18247 0.31526-0.18247h0.22619v-0.18516c-0.28847 0.01307-0.52375 0.02051-0.70664 0.02051-0.17464 0-0.41979-0.0074-0.73526-0.02051v0.18516l0.22133 0.02106c0.19797 0.01921 0.31135 0.06582 0.33956 0.13928 0.02799 0.07346 0.04211 0.50545 0.04211 1.2961v1.8905c-0.16076-0.17293-0.42283-0.48062-0.78546-0.92474l-1.0068-1.2357c-0.18412-0.22813-0.36302-0.4539-0.53498-0.67911-0.17073-0.22377-0.35438-0.45548-0.54847-0.69261-0.1688 0.01307-0.32325 0.02051-0.4648 0.02051-0.13182 0-0.32209-0.0074-0.57114-0.02051zm5.0572 0v0.18516h0.23807c0.15689 0 0.25144 0.04012 0.28233 0.12038 0.03234 0.08026 0.04697 0.51367 0.04697 1.2983v0.99762c0 0.75762-0.01773 1.1806-0.05398 1.2692-0.03599 0.08829-0.14587 0.13226-0.32876 0.13226h-0.18462v0.18624c0.26609-0.01407 0.56569-0.02106 0.89721-0.02106 0.28456 0 0.54744 0.0069 0.7887 0.02106v-0.18624h-0.19381c-0.18096 0-0.28735-0.03926-0.32066-0.1166-0.03308-0.0776-0.0502-0.49707-0.0502-1.2605v-1.016c0-0.53752 0.0049-0.91134 0.01512-1.1212 0.0051-0.13573 0.02574-0.22041 0.061-0.25372 0.03527-0.03284 0.12251-0.04967 0.26236-0.04967h0.22619v-0.18516c-0.21524 0.01307-0.45602 0.02051-0.72014 0.02051-0.31863 0-0.64033-0.0074-0.96576-0.02051zm1.924 0v0.18516h0.12038c0.14373 0 0.22786 0.01788 0.25318 0.0529 0.02625 0.03503 0.1145 0.24342 0.26506 0.62405l1.0543 2.6344c0.09266 0.23033 0.18193 0.4763 0.27046 0.73849h0.30339c0.0783-0.27217 0.21106-0.63606 0.39786-1.0921l0.99168-2.4222c0.1097-0.26826 0.18549-0.42514 0.22781-0.46966 0.04231-0.04403 0.11076-0.06586 0.20514-0.06586h0.11768v-0.18516c-0.26731 0.01307-0.48922 0.02051-0.66508 0.02051-0.16855 0-0.38364-0.0074-0.6451-0.02051v0.18516l0.25318 0.0259 0.12038 0.0092c0.10847 0.0039 0.16195 0.05096 0.16195 0.14144 0 0.11164-0.13085 0.49644-0.39084 1.1536l-0.77466 1.9342-0.79464-2.0276-0.38328-1.01c-0.01001-0.03234-0.0135-0.06024-0.0135-0.08529 0-0.03915 0.01357-0.06849 0.04373-0.08745 0.02918-0.01794 0.09391-0.02807 0.19434-0.02807h0.29097v-0.21107c-0.31765 0.01307-0.59054 0.02051-0.81893 0.02051-0.21474 0-0.47706-0.0074-0.78546-0.02051zm15.333 0v0.18516h0.23807c0.15689 0 0.25146 0.04012 0.28233 0.12038 0.03212 0.08026 0.04697 0.51367 0.04697 1.2983v0.99762c0 0.75762-0.01774 1.1806-0.05399 1.2692-0.036 0.08829-0.14557 0.13226-0.32822 0.13226h-0.18516v0.18624c0.26633-0.01407 0.56571-0.02106 0.89721-0.02106 0.28433 0 0.54768 0.0069 0.7887 0.02106v-0.18624h-0.1938c-0.18096 0-0.28757-0.03926-0.32066-0.1166-0.03307-0.0776-0.0502-0.49707-0.0502-1.2605v-1.016c0-0.53752 0.0049-0.91134 0.01512-1.1212 0.0048-0.13573 0.02598-0.22041 0.061-0.25372 0.03527-0.03284 0.12251-0.04967 0.26236-0.04967h0.22619v-0.18516c-0.21499 0.01307-0.45631 0.02051-0.72068 0.02051-0.31838 0-0.63955-0.0074-0.96522-0.02051zm-10.898 0.0022v0.183l0.22673 0.02429c0.14082 0.01288 0.22552 0.02886 0.25372 0.04589 0.027 0.01802 0.0481 0.04323 0.06316 0.07558 0.01411 0.03211 0.02843 0.13242 0.04157 0.30123 0.01311 0.16856 0.01889 0.38593 0.01889 0.65104v1.6157c0 0.42198-0.0073 0.69536-0.02213 0.81893-0.01532 0.12355-0.04426 0.20173-0.08853 0.23483-0.04402 0.03331-0.15184 0.0502-0.32282 0.0502h-0.09123v0.18624c0.38112-0.01407 0.68624-0.02106 0.9161-0.02106 0.23932 0 0.61395 0.0069 1.1245 0.02106l0.4621 0.0081c0.21696-3e-6 0.43942-0.01025 0.66562-0.03239l-0.0059-0.1328c0-0.14276 0.02579-0.42983 0.07882-0.85888h-0.19704c-0.05108 0.25926-0.10123 0.47403-0.15061 0.64672-0.10726 0.0394-0.20941 0.0657-0.30501 0.07665-0.14982 0.02012-0.33377 0.03023-0.55387 0.03023-0.32762 0-0.63469-0.01122-0.92096-0.03239-0.0061-0.12064-0.0092-0.30917-0.0092-0.56845l-0.0032-0.41513v-0.72122c0.17705-0.01506 0.34764-0.02322 0.5123-0.02322 0.44533 0 0.70552 0.02084 0.77898 0.06316 0.07322 0.04208 0.11067 0.15798 0.11067 0.34549v0.17113h0.19974c-0.01416-0.25293-0.02105-0.47331-0.02105-0.65914 0-0.1768 0.0069-0.4131 0.02105-0.70934h-0.19974v0.1911c0 0.1688-0.03136 0.26912-0.09339 0.30123-0.0613 0.03307-0.32603 0.04913-0.79302 0.04913-0.14982 0-0.32171-0.0057-0.51554-0.01783v-0.59811l0.0059-0.45292c0.0061-0.18387 0.0085-0.36902 0.0065-0.55387 0.29429-0.02333 0.5756-0.03509 0.84484-0.03509 0.3376 0 0.62164 0.04322 0.85294 0.12956 0.02187 0.14375 0.03239 0.32277 0.03239 0.53876h0.20028c7e-3 -0.37068 0.04973-0.67231 0.12416-0.90314-0.18679-0.01802-0.37096-0.02526-0.55387-0.02429l-0.53552 0.0032-1.1304 0.01512c-0.09048 0-0.22323-0.0031-0.39786-0.0092l-0.31148-0.0092zm48.1 0.07126c0.34269 0 0.63979 0.07445 0.89127 0.22403 0.25077 0.1486 0.4491 0.37089 0.59382 0.66616 0.14351 0.29551 0.21593 0.65112 0.21593 1.0673 0 0.39671-0.06536 0.73319-0.19596 1.0095-0.13061 0.27604-0.30953 0.48445-0.53768 0.62405-0.22692 0.1396-0.49326 0.20946-0.7968 0.20946-0.32834 0-0.6197-0.08171-0.87507-0.24562-0.2549-0.16467-0.45834-0.41099-0.61109-0.73957-0.15176-0.32859-0.22781-0.71437-0.22781-1.1585 0-0.33347 0.06524-0.62684 0.19488-0.88101 0.12964-0.25415 0.30737-0.44711 0.53552-0.5787 0.2279-0.13158 0.49852-0.19704 0.81299-0.19704zm-33.329 0.17976c0.58858 0 1.0349 0.14984 1.3404 0.45022 0.30547 0.30038 0.45778 0.7363 0.45778 1.3091 0 0.6579-0.18384 1.1587-0.55063 1.5024-0.30451 0.28238-0.73135 0.42269-1.281 0.42269-0.2021 0-0.43506-0.01915-0.70016-0.0583-0.02336-0.31035-0.03509-0.64276-0.03509-0.99761v-1.925c0-0.24031 0.01175-0.45288 0.03509-0.64186 0.28237-0.04134 0.52738-0.06154 0.73363-0.06154zm9.3548 0c0.58884 0 1.0349 0.14984 1.3404 0.45022 0.30547 0.30038 0.45832 0.7363 0.45832 1.3091 0 0.6579-0.18387 1.1587-0.55063 1.5024-0.30452 0.28238-0.73134 0.42269-1.281 0.42269-0.20187 0-0.43506-0.01915-0.70017-0.0583-0.02311-0.31035-0.03509-0.64276-0.03509-0.99761v-1.925c0-0.24031 0.01197-0.45288 0.03509-0.64186 0.28213-0.04134 0.52735-0.06154 0.7331-0.06154zm12.939 0.38814 0.74173 1.7723h-1.484zm20.743 0 0.74173 1.7723h-1.4845zm-38.156 0.12038 0.74119 1.7723h-1.484zm15.949 6.5795c-0.12209-3e-6 -0.29989 0.0052-0.53606 0.01564-0.35801 0.01459-0.68253 0.02266-0.9744 0.02266-0.49714 0-0.90811-7e-3 -1.2314-0.01891v0.244h0.19326c0.25708 0 0.41754 0.03742 0.48369 0.11282 0.06641 0.07564 0.1021 0.2799 0.10743 0.61433l0.01081 0.80327v2.0751c-0.01435 0.62849-0.02951 1.0049-0.04265 1.1283-0.01338 0.12331-0.04206 0.20397-0.08853 0.24509-0.04645 0.03987-0.15098 0.05992-0.31418 0.05992h-0.34981v0.24509c0.59249-0.01846 1.0058-0.02753 1.2378-0.02753 0.26536 0 0.62636 9e-3 1.0851 0.02753v-0.24509h-0.26776c-0.25977 0-0.41294-0.04621-0.4594-0.14036-0.04644-0.0929-0.06964-0.52934-0.06964-1.3091v-2.2182c0-0.42175 0.0093-0.8191 0.02753-1.192 0.2972-0.09508 0.57127-0.14468 0.82325-0.14468 0.4429 0 0.77577 0.10191 0.99977 0.30501 0.22401 0.20406 0.33686 0.48688 0.33686 0.85024 0 0.3753-0.10463 0.67098-0.31526 0.88695-0.20966 0.21623-0.49367 0.32498-0.85024 0.32498-0.15396 0-0.34301-0.0311-0.57115-0.09069l0.07827 0.29583c0.23179 0.0489 0.42647 0.0745 0.5814 0.0745 0.33976 0 0.65949-0.07992 0.95766-0.23753 0.29964-0.15787 0.53073-0.36754 0.69369-0.62729 0.1632-0.26146 0.24509-0.53145 0.24509-0.81407 0-0.38841-0.14193-0.6963-0.42431-0.9242-0.28408-0.22838-0.73984-0.34171-1.3669-0.34171zm-34.02 0.01943v0.244h0.20514c0.19652 0 0.32913 0.02427 0.39408 0.07072 0.06616 0.04621 0.10508 0.11404 0.11552 0.20136 0.02263 0.17098 0.03455 0.52246 0.03455 1.0527v2.1987c0 0.42004-0.01713 0.81114-0.0502 1.1731-0.01313 0.13011-0.0481 0.21864-0.10527 0.26776-0.0569 0.04914-0.17103 0.0745-0.34226 0.0745h-0.25156v0.24508c0.48643-0.01846 0.81175-0.02753 0.97494-0.02753 0.22547 0 0.51828 9e-3 0.87777 0.02753v-0.24508h-0.1436c-0.2904 0-0.4623-0.04786-0.51824-0.14198-0.0557-0.09413-0.08368-0.49211-0.08368-1.1909v-3.0031l1.3895 2.8789c0.45336 0.95317 0.72806 1.5449 0.82487 1.7755h0.15493c0.27728-0.6737 0.63168-1.4599 1.0651-2.3618l1.1531-2.4012v3.158c0 0.67906-0.02125 1.0623-0.06478 1.1525-0.04256 0.08877-0.16549 0.13388-0.36979 0.13388h-0.2575v0.24508c0.39644-0.01846 0.77593-0.02753 1.139-0.02753 0.32883 0 0.67255 9e-3 1.0332 0.02753v-0.24508h-0.22187c-0.24395 0-0.39235-0.04621-0.44536-0.14036-0.05303-0.0929-0.07936-0.45514-0.07936-1.0878v-2.839c0-0.49032 0.02499-0.77396 0.07558-0.85348 0.05156-0.07832 0.19116-0.11822 0.41783-0.11822h0.25318v-0.244c-0.39913 0.01697-0.67506 0.02645-0.82757 0.02645-0.13255 0-0.36049-0.0094-0.68397-0.02645-0.42442 0.95732-0.80216 1.7769-1.1337 2.4584l-0.94417 1.9467-1.0224-2.1016c-0.40837-0.83935-0.77044-1.6074-1.0834-2.3035-0.27193 0.01697-0.48163 0.02645-0.62999 0.02645-0.11674 0-0.39901-0.0094-0.8497-0.02645zm-7.21 1.0667c-0.25246 0.09679-0.56328 0.1747-0.93176 0.23429l-0.02321 0.0259-0.0092 0.07396 0.02321 0.02374 0.24832 0.0032c0.07977 0 0.13425 0.0092 0.16465 0.02645 0.03041 0.01824 0.04535 0.04824 0.04535 0.09177 0 0.05132-0.0069 0.11437-0.02321 0.19002l-0.15331 0.89558c-0.21694-0.04938-0.38267-0.07396-0.49773-0.07396-0.10604 0-0.2101 0.02007-0.31202 0.06262-0.10093 0.04136-0.2219 0.10919-0.36223 0.20406-0.13938 0.09387-0.25185 0.18984-0.33578 0.28665-0.08366 0.09704-0.16828 0.24031-0.25318 0.43025-0.08463 0.19069-0.15455 0.41581-0.21 0.67533-0.05448 0.26048-0.08259 0.47482-0.08259 0.6424 0 0.12208 0.01285 0.2391 0.03887 0.34927 0.02529 0.10993 0.05906 0.18699 0.10041 0.22835 0.04161 0.04134 0.09157 0.06154 0.15115 0.06154 0.16563 0 0.39595-0.12727 0.69099-0.38166 0.29478-0.25441 0.54811-0.56136 0.76117-0.91988l0.01512 0.0028c-0.07661 0.32105-0.13048 0.55547-0.15871 0.70286-0.0282 0.1464-0.04319 0.25658-0.04319 0.3293 0 0.08877 0.01422 0.15522 0.04049 0.19974 0.02626 0.04451 0.06069 0.06694 0.10203 0.06694 0.07468 0 0.20062-0.05665 0.37842-0.16951 0.17753-0.11431 0.3588-0.25072 0.54145-0.41027l0.0086-0.03833-0.02915-0.06856-0.03239-0.0081c-0.23932 0.18874-0.39554 0.28341-0.4702 0.28341-0.0557 0-0.08313-0.04712-0.08313-0.14198 0-0.0394 0.0023-0.07831 0.0054-0.11552 0.01409-0.11821 0.0482-0.31873 0.10365-0.60353l0.34981-1.6681c0.11819-0.56646 0.2229-1.044 0.3158-1.4349zm16.885 0.22025c-0.07832 0.21986-0.22638 0.57406-0.44212 1.0602l-0.80867 1.8333c-0.14569 0.32762-0.28814 0.63318-0.42701 0.91556-0.04525 0.09632-0.08889 0.15712-0.12902 0.18192-0.04014 0.02432-0.12848 0.03793-0.26614 0.04211l-0.08799 0.0032v0.1857c0.21379-0.01418 0.46176-0.02106 0.74389-0.02106 0.23617 0 0.44846 0.0069 0.63646 0.02106v-0.1857l-0.28287-0.03239c-0.10044-0.01216-0.16246-0.02801-0.18678-0.04697-0.02432-0.01996-0.03671-0.05248-0.03671-0.09771 0-0.07029 0.066-0.26303 0.19758-0.57654l0.20028-0.47452h1.701l0.32444 0.81893c0.05812 0.1486 0.08745 0.24137 0.08745 0.2764 0 0.03357-0.0141 0.06143-0.04427 0.08259-0.01921 0.01412-0.08102 0.02474-0.18462 0.03185l-0.29151 0.01835v0.1857c0.35874-0.01418 0.64589-0.02106 0.86212-0.02106 0.23177 0 0.47502 0.0069 0.7304 0.02106v-0.1857c-0.15176-8e-3 -0.24846-0.02228-0.29151-0.04319-0.04353-0.02018-0.08137-0.05416-0.11444-0.10257-0.03405-0.04814-0.10063-0.1899-0.20082-0.42485l-1.4894-3.4657zm32.249 0c-0.07808 0.21986-0.2256 0.57405-0.44159 1.0602l-0.80867 1.8333c-0.14593 0.32762-0.28868 0.63318-0.42755 0.91556-0.04501 0.09632-0.08812 0.15712-0.12848 0.18192-0.04013 0.02432-0.12848 0.03793-0.26614 0.04211l-0.08853 0.0032v0.1857c0.21405-0.01418 0.4623-0.02106 0.74443-0.02106 0.23616 0 0.44816 0.0069 0.63592 0.02106v-0.1857l-0.28233-0.03239c-0.1002-0.01216-0.16246-0.02801-0.18678-0.04697-0.0241-0.01996-0.03725-0.05248-0.03725-0.09771 0-0.07029 0.06655-0.26303 0.19812-0.57654l0.19974-0.47452h1.701l0.32498 0.81893c0.05813 0.1486 0.08692 0.24137 0.08692 0.2764 0 0.03357-0.01379 0.06143-0.04373 0.08259-0.01921 0.01412-0.08179 0.02474-0.18516 0.03185l-0.29097 0.01835v0.1857c0.3585-0.01418 0.64536-0.02106 0.86157-0.02106 0.23204 0 0.47502 0.0069 0.7304 0.02106v-0.1857c-0.15177-8e-3 -0.24792-0.02228-0.29097-0.04319-0.0433-0.02018-0.08167-0.05416-0.11499-0.10257-0.03405-0.04814-0.10038-0.1899-0.20082-0.42485l-1.4889-3.4657zm8.3842 0c-0.07832 0.21986-0.22616 0.57405-0.44212 1.0602l-0.80921 1.8333c-0.14569 0.32762-0.28837 0.63318-0.42701 0.91556-0.04524 0.09632-0.08834 0.15712-0.12848 0.18192-0.04036 0.02432-0.12849 0.03793-0.26614 0.04211l-0.08853 0.0032v0.1857c0.21403-0.01418 0.46206-0.02106 0.74443-0.02106 0.23617 0 0.44816 0.0069 0.63592 0.02106v-0.1857l-0.28179-0.03239c-0.1007-0.01216-0.16323-0.02801-0.18732-0.04697-0.02407-0.01996-0.03725-0.05248-0.03725-0.09771 0-0.07029 0.06654-0.26303 0.19812-0.57654l0.20028-0.47452h1.7005l0.32444 0.81893c0.05839 0.1486 0.08745 0.24137 0.08745 0.2764 0 0.03357-0.01357 0.06143-0.04373 0.08259-0.01896 0.01412-0.08155 0.02474-0.18516 0.03185l-0.29151 0.01835v0.1857c0.35852-0.01418 0.64645-0.02106 0.86266-0.02106 0.23179 0 0.47471 0.0069 0.72986 0.02106v-0.1857c-0.15178-8e-3 -0.24822-0.02228-0.29151-0.04319-0.04305-0.02018-0.08081-0.05416-0.1139-0.10257-0.03429-0.04814-0.10066-0.1899-0.20136-0.42485l-1.4889-3.4657zm-36.041 0.02429c-0.12355 0-0.32709 0.0051-0.60947 0.01404-0.24394 0.0099-0.42963 0.01512-0.55927 0.01512-0.19288 0-0.47113-0.0081-0.8362-0.02322v0.18786h0.15871c0.19992 0 0.31898 0.03638 0.35521 0.10958 0.03601 0.07248 0.05398 0.41279 0.05398 1.0208v1.416c0 0.70122-0.01512 1.0877-0.04697 1.1612-0.03138 0.07321-0.13081 0.11067-0.29961 0.11067h-0.22133v0.1857c0.4412-0.01418 0.74678-0.02106 0.91556-0.02106 0.21428 0 0.48312 0.0069 0.80975 0.02106v-0.1857h-0.22997c-0.1829 0-0.29029-0.03852-0.32336-0.11391-0.03308-0.07541-0.0502-0.45859-0.0502-1.152v-1.4219c0-0.35485 0.01222-0.68832 0.03509-1.0009 0.20796-0.07637 0.41505-0.11444 0.62081-0.11444 0.29649 0 0.52357 0.07167 0.68019 0.21323 0.1569 0.14277 0.23591 0.34033 0.23591 0.59328 0 0.28238-0.09317 0.50761-0.27802 0.67641-0.18581 0.16905-0.44245 0.25318-0.76981 0.25318-0.05521 0-0.13983-0.0051-0.25318-0.01404l-0.03023 0.09933c0.2223 0.24736 0.43022 0.50052 0.62405 0.75955l1.043 1.4079c0.12355-0.01418 0.24134-0.02106 0.35251-0.02106 0.1216 0 0.2643 0.0069 0.42701 0.02106v-0.18569h-0.07612c-0.03552 0-0.07058-0.0094-0.10365-0.02645-0.03309-0.01822-0.09928-0.08936-0.19974-0.21485l-0.56575-0.73364c-0.28433-0.36679-0.52258-0.68818-0.71474-0.96522 0.37796-0.07854 0.66749-0.22327 0.86643-0.43511 0.19968-0.21209 0.29961-0.45613 0.29961-0.73363 0-0.18752-0.0462-0.34983-0.13766-0.48531-0.09048-0.13571-0.22393-0.23915-0.40002-0.31041-0.1756-0.07248-0.43272-0.10743-0.7725-0.10743zm5.5781 0.0059-0.6451 0.01133-0.79194 0.0059c-0.1114 0-0.32948-0.0051-0.6532-0.01404v0.18462l0.23537 0.03509c0.1396 0.01996 0.22035 0.04125 0.24347 0.06532 0.02189 0.02311 0.03989 0.10855 0.05398 0.25642 0.0241 0.25295 0.03509 0.55314 0.03509 0.90314v0.85402c0 0.75982-0.01515 1.2915-0.04751 1.5958l-0.27261 0.16141v0.1409c0.24516-0.02311 0.44688-0.03509 0.60569-0.03509 0.09437 0 0.31964 7e-3 0.67426 0.02106l0.36223 0.0081c0.71944 0 1.3035-0.21581 1.7496-0.64996 0.44729-0.43413 0.67048-0.98292 0.67048-1.646 0-0.32785-0.0586-0.61574-0.17437-0.86698-0.11552-0.25028-0.28429-0.45843-0.50636-0.62405-0.22206-0.16589-0.46878-0.27639-0.74119-0.33038-0.27313-0.05545-0.53886-0.08052-0.79788-0.07666zm6.2756 0.0032v0.18462h0.3212c0.13182 0 0.21159 0.03436 0.24076 0.10149 0.02822 0.06858 0.04211 0.39583 0.04211 0.98466v1.6195c0 0.5436-0.0139 0.85424-0.04211 0.9323-0.02918 0.07857-0.12191 0.15299-0.27855 0.22133v0.15601c0.39791-0.02114 0.69149-0.03239 0.88047-0.03239l1.4003 0.02322c0.30645 0 0.54763-0.01435 0.72446-0.04427 0.02723-0.32153 0.06533-0.66826 0.11444-1.0392h-0.19056l-0.17707 0.69261c-0.15444 0.04109-0.30551 0.06923-0.45022 0.08529-0.20794 0.01915-0.4962 0.02915-0.8659 0.02915-0.18192 0-0.37007-0.0052-0.56197-0.01512l0.0092-0.17275-0.0092-0.83081v-1.8748c0-0.43706 0.01305-0.68651 0.04103-0.74659 0.02723-0.0591 0.09366-0.08961 0.19704-0.08961h0.36493v-0.18462c-0.34878 0.01293-0.62565 0.01998-0.82972 0.01998-0.15274 0-0.46369-0.0071-0.93068-0.01998zm9.995 0v0.18462h0.3212c0.13158 0 0.21104 0.03436 0.24023 0.10149 0.02819 0.06858 0.04211 0.39583 0.04211 0.98466v1.6195c0 0.5436-0.0139 0.85424-0.04211 0.9323-0.02919 0.07857-0.12139 0.15299-0.27802 0.22133v0.15601c0.39791-0.02114 0.69119-0.03239 0.87993-0.03239l1.4003 0.02322c0.30646 0 0.54819-0.01435 0.725-0.04427 0.02725-0.32153 0.06508-0.66826 0.11444-1.0392h-0.1911l-0.17706 0.69261c-0.15445 0.04109-0.30495 0.06923-0.44968 0.08529-0.20794 0.01915-0.49646 0.02915-0.8659 0.02915-0.18218 0-0.37007-0.0052-0.56197-0.01512l0.0092-0.17275-0.0092-0.83081v-1.8748c0-0.43706 0.01282-0.68651 0.04103-0.74659 0.027-0.0591 0.09343-0.08961 0.19704-0.08961h0.36493v-0.18462c-0.34878 0.01293-0.62622 0.01998-0.83027 0.01998-0.15276 0-0.46291-0.0071-0.93014-0.01998zm8.3221 0c0.02336 0.26437 0.03509 0.46684 0.03509 0.60839l-0.0054 0.35089h0.18462l0.04211-0.39462c0.01531-0.15273 0.047-0.24132 0.09663-0.26344 0.04912-0.02311 0.31633-0.03401 0.80057-0.03401h0.30015c0.0141 0.27728 0.01998 0.58082 0.01998 0.91232v1.6805c0 0.36385-0.0087 0.65932-0.02861 0.88965-0.01 0.10022-0.03401 0.16687-0.07342 0.2019-0.03916 0.03428-0.12379 0.05128-0.25318 0.05128h-0.24724v0.1857c0.34147-0.01418 0.63377-0.02106 0.87723-0.02106 0.24103 0 0.5356 0.0069 0.88317 0.02106v-0.18561h-0.22133c-0.19189 0-0.30412-0.03232-0.33524-0.09555-0.03113-0.06446-0.04751-0.40805-0.04751-1.0322v-1.6773c0-0.32567 0.01147-0.63612 0.03239-0.93068h0.22997c0.27459 0 0.51927 0.0077 0.73526 0.02374 0.07539 0.0049 0.12308 0.02103 0.14522 0.04535 0.02117 0.02432 0.03776 0.10346 0.04967 0.23699l0.02915 0.38598h0.18355c0.0048-0.3084 0.02673-0.62779 0.0637-0.95928l-1.6276 0.01998c-0.18705 0-0.80993-0.0071-1.8689-0.01998zm-21.993 0.0017v0.183l0.22727 0.0243c0.14058 0.01291 0.22496 0.02916 0.25318 0.04643 0.02698 0.01799 0.04807 0.04292 0.06316 0.07503 0.01412 0.03234 0.02813 0.13245 0.04103 0.30123 0.01316 0.1688 0.01891 0.38623 0.01891 0.65158v1.6152c0 0.42199-7e-3 0.69537-0.02214 0.81893-0.01506 0.12355-0.04398 0.20229-0.08799 0.23537-0.04452 0.03307-0.15208 0.0502-0.32282 0.0502h-0.09123v0.1857c0.38088-0.01418 0.68602-0.02106 0.9161-0.02106 0.2391 0 0.6142 0.0069 1.1245 0.02106l0.4621 0.0081c0.21719 0 0.43888-0.01028 0.66508-0.03239l-0.0059-0.13226c0-0.14275 0.02634-0.43037 0.07936-0.85942h-0.1965c-0.05132 0.25928-0.10203 0.47433-0.15115 0.64726-0.1075 0.03892-0.2102 0.06519-0.30555 0.07612-0.14958 0.02012-0.33321 0.03023-0.55333 0.03023-0.32761 0-0.63497-0.0107-0.9215-0.03185-0.0059-0.12065-0.0092-0.3097-0.0092-0.56899l-0.0028-0.41459v-0.72176c0.17683-0.01531 0.34739-0.02322 0.5123-0.02322 0.44508 0 0.70552 0.02139 0.77898 0.0637 0.07321 0.04208 0.11013 0.15771 0.11013 0.34549v0.17059h0.19974c-0.01407-0.25319-0.02106-0.47309-0.02106-0.65914 0-0.17659 7e-3 -0.4131 0.02106-0.70934h-0.19974v0.1911c0 0.16902-0.03114 0.26913-0.09339 0.30123-0.0613 0.03334-0.32579 0.04966-0.79302 0.04966-0.14958 0-0.32115-0.0062-0.515-0.01835v-0.59754l0.0059-0.45346c0.0059-0.18387 0.0081-0.36902 0.0059-0.55387 0.29455-0.02286 0.5756-0.03509 0.84484-0.03509 0.33759 0 0.62213 0.04375 0.85294 0.1301 0.02208 0.14374 0.03239 0.32223 0.03239 0.53822h0.20136c7e-3 -0.37067 0.04865-0.67184 0.12308-0.90314-0.18705-0.01802-0.37068-0.02526-0.55333-0.0243l-0.53552 0.0032-1.1304 0.01457c-0.09023 0-0.22323-0.0025-0.39786-0.0086l-0.31149-0.0092zm-2.7996 0.25156c0.58884 0 1.0349 0.14984 1.3404 0.45022 0.30549 0.3006 0.45832 0.73603 0.45832 1.3086 0 0.65838-0.18386 1.159-0.55063 1.5024-0.30451 0.28262-0.73135 0.42323-1.281 0.42323-0.20212 3e-6 -0.43505-0.01888-0.70016-0.0583-0.02336-0.31058-0.03509-0.643-0.03509-0.99762v-1.925c0-0.2403 0.01172-0.45342 0.03509-0.6424 0.28214-0.0411 0.5271-0.061 0.73309-0.061zm-10.008 0.50798 0.74173 1.7728h-1.484zm32.249 0 0.74174 1.7728h-1.4845zm8.3836 0 0.74119 1.7728h-1.484zm-55.574 0.47618c-0.13838 0-0.28069 0.03644-0.42809 0.10797-0.1464 0.07175-0.3019 0.16673-0.46534 0.28395-0.16369 0.11724-0.28698 0.2419-0.36871 0.37518-0.08197 0.13329-0.16391 0.3395-0.24562 0.61919-0.0817 0.27873-0.12308 0.54125-0.12308 0.78762 0 0.1756 0.02834 0.3203 0.08475 0.43241 0.05667 0.11212 0.14126 0.19846 0.25534 0.25804 0.11529 0.06057 0.22722 0.09123 0.3374 0.09123 0.3371 0 0.74932-0.20491 1.2341-0.61595l0.0059-0.03833-0.03239-0.07396-0.03347-0.01188c-0.37261 0.29187-0.69165 0.4378-0.95821 0.4378-0.14131 0-0.25235-0.05215-0.33092-0.15601-0.0788-0.10508-0.11822-0.24642-0.11822-0.42323 0-0.12625 0.01943-0.2847 0.05884-0.47344l0.13928-0.03239c0.33516-0.07661 0.62299-0.17567 0.86428-0.29583 0.24028-0.12015 0.4057-0.24836 0.49665-0.38382 0.09072-0.13427 0.13604-0.28161 0.13604-0.44212 0-0.13938-0.04712-0.2494-0.14198-0.32822-0.0951-0.07878-0.21719-0.11822-0.36655-0.11822zm-0.21 0.23915c0.07466 0 0.13812 0.02662 0.19164 0.0772 0.0535 0.05132 0.0799 0.12998 0.0799 0.23699 0 0.13838-0.04957 0.27375-0.14953 0.40703-0.09899 0.1323-0.24237 0.23928-0.42917 0.31904-0.18581 0.07979-0.38251 0.13824-0.5895 0.17545 0.12015-0.46334 0.22293-0.75802 0.30878-0.88425 0.08586-0.12624 0.18468-0.21322 0.29583-0.25966 0.1109-0.04743 0.20936-0.0718 0.29205-0.0718zm-2.9847 0.03077c0.19677 0 0.3875 0.04734 0.5733 0.14413-0.0788 0.36654-0.13714 0.60898-0.17437 0.725-0.08292 0.25441-0.20684 0.49385-0.37249 0.71906-0.16563 0.22499-0.35358 0.40341-0.56251 0.53768-0.13742 0.08682-0.24436 0.13064-0.31904 0.13064-0.04547 0-0.07882-0.02128-0.10095-0.06262-0.02139-0.04161-0.03239-0.11528-0.03239-0.22133 0-0.17148 0.01623-0.35003 0.04858-0.5339 0.03332-0.1846 0.07859-0.37157 0.1382-0.56251 0.05861-0.1897 0.11942-0.3502 0.18193-0.48153 0.06154-0.13135 0.11164-0.21702 0.15007-0.25642 0.03818-0.03917 0.09602-0.07157 0.17167-0.09879 0.07588-0.02626 0.17591-0.0394 0.29799-0.0394zm0.77628 6.1827c-0.11098 0-0.20473 0.03805-0.28179 0.11606-0.07627 0.07785-0.11552 0.17096-0.11552 0.28017 0 0.10922 0.03911 0.20313 0.11714 0.28017 0.07783 0.07804 0.17077 0.11714 0.28017 0.11714 0.1092 0 0.20238-0.03911 0.27964-0.11714 0.07608-0.07704 0.11498-0.17096 0.11498-0.28017 0-0.11098-0.0389-0.204-0.11498-0.28125-0.07725-0.07704-0.17044-0.11498-0.27964-0.11498zm2.6436 0c-0.11117 0-0.20527 0.03805-0.28233 0.11606-0.07646 0.07785-0.11552 0.17096-0.11552 0.28017 0 0.10922 0.03911 0.20313 0.11714 0.28017 0.07783 0.07804 0.17131 0.11714 0.28071 0.11714 0.10921 0 0.20203-0.03911 0.2791-0.11714 0.07627-0.07704 0.11552-0.17096 0.11552-0.28017 0-0.11098-0.03924-0.204-0.11552-0.28125-0.07706-0.07704-0.16989-0.11498-0.2791-0.11498zm2.643 0c-0.11098 0-0.20527 0.03805-0.28233 0.11606-0.07625 0.07785-0.11552 0.17096-0.11552 0.28017 0 0.10922 0.03912 0.20313 0.11714 0.28017 0.07785 0.07804 0.17131 0.11714 0.28071 0.11714 0.10922 0 0.20203-0.03911 0.2791-0.11714 0.07625-0.07704 0.11552-0.17096 0.11552-0.28017 0-0.11098-0.03927-0.204-0.11552-0.28125-0.07706-0.07704-0.16988-0.11498-0.2791-0.11498zm2.643 0c-0.11098 0-0.20528 0.03805-0.28233 0.11606-0.07627 0.07785-0.11498 0.17096-0.11498 0.28017 0 0.10922 0.03875 0.20313 0.1166 0.28017 0.07802 0.07804 0.17131 0.11714 0.28071 0.11714 0.1092 0 0.20237-0.03911 0.27963-0.11714 0.07609-0.07704 0.11498-0.17096 0.11498-0.28017 0-0.11098-0.0389-0.204-0.11498-0.28125-0.07726-0.07704-0.17044-0.11498-0.27963-0.11498zm2.643 0c-0.11098 0-0.20508 0.03805-0.28233 0.11606-0.07626 0.07785-0.11498 0.17096-0.11498 0.28017 0 0.10922 0.03857 0.20313 0.1166 0.28017 0.07783 0.07804 0.1715 0.11714 0.28071 0.11714 0.10921 0 0.20258-0.03911 0.27963-0.11714 0.07628-0.07704 0.11498-0.17096 0.11498-0.28017 0-0.11098-0.03871-0.204-0.11498-0.28125-0.07706-0.07704-0.17042-0.11498-0.27963-0.11498zm2.643 0c-0.11098 0-0.20527 0.03805-0.28234 0.11606-0.07626 0.07785-0.11498 0.17096-0.11498 0.28017 0 0.10922 0.03913 0.20313 0.11714 0.28017 0.07785 0.07804 0.17077 0.11714 0.28017 0.11714 0.10922 0 0.20257-0.03911 0.27963-0.11714 0.07626-0.07704 0.11498-0.17096 0.11498-0.28017 0-0.11098-0.03873-0.204-0.11498-0.28125-0.07706-0.07704-0.17042-0.11498-0.27963-0.11498zm2.643 0c-0.11117 0-0.20473 0.03805-0.28179 0.11606-0.07646 0.07785-0.11552 0.17096-0.11552 0.28017 0 0.10922 0.03857 0.20313 0.1166 0.28017 0.07803 0.07804 0.17131 0.11714 0.28072 0.11714 0.10919 0 0.20259-0.03911 0.27963-0.11714 0.07627-0.07704 0.11498-0.17096 0.11498-0.28017 0-0.11098-0.03871-0.204-0.11498-0.28125-0.07704-0.07704-0.17044-0.11498-0.27963-0.11498zm2.643 0c-0.11098 0-0.20508 0.03805-0.28234 0.11606-0.07627 0.07785-0.11498 0.17096-0.11498 0.28017 0 0.10922 0.03911 0.20313 0.11714 0.28017 0.07784 0.07804 0.17096 0.11714 0.28017 0.11714s0.20257-0.03911 0.27963-0.11714c0.07627-0.07704 0.11498-0.17096 0.11498-0.28017 0-0.11098-0.03871-0.204-0.11498-0.28125-0.07706-0.07704-0.17042-0.11498-0.27963-0.11498zm2.643 0c-0.11099 0-0.20473 0.03805-0.28179 0.11606-0.07625 0.07785-0.11552 0.17096-0.11552 0.28017 0 0.10922 0.03912 0.20313 0.11714 0.28017 0.07785 0.07804 0.17076 0.11714 0.28017 0.11714 0.10921 0 0.20238-0.03911 0.27963-0.11714 0.07607-0.07704 0.11498-0.17096 0.11498-0.28017 0-0.11098-0.03891-0.204-0.11498-0.28125-0.07725-0.07704-0.17042-0.11498-0.27963-0.11498zm2.6436 0c-0.11117 0-0.20527 0.03805-0.28233 0.11606-0.07646 0.07785-0.11552 0.17096-0.11552 0.28017 0 0.10922 0.03911 0.20313 0.11714 0.28017 0.07783 0.07804 0.17131 0.11714 0.28071 0.11714 0.1092 0 0.20205-0.03911 0.2791-0.11714 0.07627-0.07704 0.11552-0.17096 0.11552-0.28017-2e-6 -0.11098-0.03926-0.204-0.11552-0.28125-0.07704-0.07704-0.1699-0.11498-0.2791-0.11498zm2.643 0c-0.11096 0-0.20508 0.03805-0.28233 0.11606-0.07627 0.07785-0.11552 0.17096-0.11552 0.28017 0 0.10922 0.03911 0.20313 0.11714 0.28017 0.07783 0.07804 0.1715 0.11714 0.28071 0.11714 0.10921 0 0.20203-0.03911 0.2791-0.11714 0.07627-0.07704 0.11552-0.17096 0.11552-0.28017 0-0.11098-0.03926-0.204-0.11552-0.28125-0.07706-0.07704-0.16988-0.11498-0.2791-0.11498zm2.643 0c-0.11098 0-0.20529 0.03805-0.28233 0.11606-0.07627 0.07785-0.11499 0.17096-0.11499 0.28017 0 0.10922 0.03877 0.20313 0.11661 0.28017 0.07804 0.07804 0.17131 0.11714 0.28071 0.11714 0.10922 0 0.20238-0.03911 0.27964-0.11714 0.07607-0.07704 0.11499-0.17096 0.11499-0.28017-3e-6 -0.11098-0.03892-0.204-0.11499-0.28125-0.07725-0.07704-0.17042-0.11498-0.27964-0.11498zm2.643 0c-0.11096 0-0.20527 0.03805-0.28233 0.11606-0.07646 0.07785-0.11499 0.17096-0.11499 0.28017 0 0.10922 0.03857 0.20313 0.11661 0.28017 0.07784 0.07804 0.17152 0.11714 0.28071 0.11714 0.10941 0 0.20259-0.03911 0.27964-0.11714 0.07628-0.07704 0.11499-0.17096 0.11499-0.28017-3e-6 -0.11098-0.03871-0.204-0.11499-0.28125-0.07704-0.07704-0.17023-0.11498-0.27964-0.11498zm2.643 0c-0.11096 0-0.20529 0.03805-0.28233 0.11606-0.07627 0.07785-0.11499 0.17096-0.11499 0.28017 0 0.10922 0.0391 0.20313 0.11714 0.28017 0.07783 0.07804 0.17077 0.11714 0.28017 0.11714 0.10922 0 0.20257-0.03911 0.27964-0.11714 0.07628-0.07704 0.11499-0.17096 0.11499-0.28017-3e-6 -0.11098-0.03872-0.204-0.11499-0.28125-0.07706-0.07704-0.17042-0.11498-0.27964-0.11498zm2.643 0c-0.11098 0-0.20474 0.03805-0.28179 0.11606-0.07627 0.07785-0.11552 0.17096-0.11552 0.28017 0 0.10922 0.03877 0.20313 0.11661 0.28017 0.07804 0.07804 0.17131 0.11714 0.28071 0.11714 0.10922 0 0.20238-0.03911 0.27964-0.11714 0.07606-0.07704 0.11499-0.17096 0.11499-0.28017-3e-6 -0.11098-0.03892-0.204-0.11499-0.28125-0.07726-0.07704-0.17042-0.11498-0.27964-0.11498zm2.643 0c-0.11096 0-0.20508 0.03805-0.28233 0.11606-0.07627 0.07785-0.11499 0.17096-0.11499 0.28017 0 0.10922 0.03911 0.20313 0.11714 0.28017 0.07783 0.07804 0.17098 0.11714 0.28017 0.11714 0.10922 0 0.20259-0.03911 0.27964-0.11714 0.07627-0.07704 0.11499-0.17096 0.11499-0.28017-3e-6 -0.11098-0.03872-0.204-0.11499-0.28125-0.07704-0.07704-0.17042-0.11498-0.27964-0.11498zm2.643 0c-0.11096 0-0.20475 0.03805-0.28179 0.11606-0.07627 0.07785-0.11552 0.17096-0.11552 0.28017 0 0.10922 0.03911 0.20313 0.11714 0.28017 0.07783 0.07804 0.17077 0.11714 0.28017 0.11714 0.10922 0 0.20257-0.03911 0.27964-0.11714 0.07607-0.07704 0.11552-0.17096 0.11552-0.28017 0-0.11098-0.03945-0.204-0.11552-0.28125-0.07706-0.07704-0.17042-0.11498-0.27964-0.11498zm2.6436 0c-0.11116 0-0.20529 0.03805-0.28233 0.11606-0.07648 0.07785-0.11552 0.17096-0.11552 0.28017 0 0.10922 0.03911 0.20313 0.11714 0.28017 0.07804 0.07804 0.17131 0.11714 0.28071 0.11714 0.10922 0 0.20205-0.03911 0.2791-0.11714 0.07627-0.07704 0.11552-0.17096 0.11552-0.28017 0-0.11098-0.03926-0.204-0.11552-0.28125-0.07704-0.07704-0.16988-0.11498-0.2791-0.11498zm2.643 0c-0.11096 0-0.20508 0.03805-0.28233 0.11606-0.07627 0.07785-0.11552 0.17096-0.11552 0.28017 0 0.10922 0.0391 0.20313 0.11714 0.28017 0.07783 0.07804 0.17151 0.11714 0.28071 0.11714 0.10921 0 0.20205-0.03911 0.2791-0.11714 0.07628-0.07704 0.11552-0.17096 0.11552-0.28017 0-0.11098-0.03924-0.204-0.11552-0.28125-0.07704-0.07704-0.16989-0.11498-0.2791-0.11498zm2.643 0c-0.11096 0-0.20529 0.03805-0.28233 0.11606-0.07626 0.07785-0.11499 0.17096-0.11499 0.28017 0 0.10922 0.03857 0.20313 0.11661 0.28017 0.07783 0.07804 0.17131 0.11714 0.28071 0.11714 0.10922 0 0.20238-0.03911 0.27964-0.11714 0.07608-0.07704 0.11499-0.17096 0.11499-0.28017 0-0.11098-0.03891-0.204-0.11499-0.28125-0.07725-0.07704-0.17042-0.11498-0.27964-0.11498zm2.643 0c-0.11117 0-0.20529 0.03805-0.28233 0.11606-0.07648 0.07785-0.11499 0.17096-0.11499 0.28017 0 0.10922 0.03857 0.20313 0.11661 0.28017 0.07783 0.07804 0.17131 0.11714 0.28071 0.11714 0.10922 0 0.20259-0.03911 0.27964-0.11714 0.07627-0.07704 0.11499-0.17096 0.11499-0.28017 0-0.11098-0.03871-0.204-0.11499-0.28125-0.07705-0.07704-0.17042-0.11498-0.27964-0.11498zm2.643 0c-0.11096 0-0.20527 0.03805-0.28233 0.11606-0.07627 0.07785-0.11499 0.17096-0.11499 0.28017 0 0.10922 0.03911 0.20313 0.11714 0.28017 0.07783 0.07804 0.17098 0.11714 0.28017 0.11714 0.10922 0 0.20259-0.03911 0.27964-0.11714 0.07628-0.07704 0.11499-0.17096 0.11499-0.28017 0-0.11098-0.03871-0.204-0.11499-0.28125-0.07704-0.07704-0.17042-0.11498-0.27964-0.11498z" style="fill-rule:evenodd;fill:#252d77"/>
</svg>
